SplineFontDB: 3.0
FontName: Bodoni-36-Fatface
FullName: Bodoni* 36 Fatface
FamilyName: Bodoni* 36 Fatface
Weight: Fatface
Copyright: Copyright (c) 2017, Owen Earl,,, (EwonRael@yahoo.com)
Version: 001.0
ItalicAngle: 0
UnderlinePosition: -408
UnderlineWidth: 204
Ascent: 3276
Descent: 820
InvalidEm: 0
LayerCount: 2
Layer: 0 0 "Back" 1
Layer: 1 0 "Fore" 0
PreferredKerning: 4
XUID: [1021 31 -699969567 16487490]
FSType: 0
OS2Version: 0
OS2_WeightWidthSlopeOnly: 0
OS2_UseTypoMetrics: 1
CreationTime: 1460762150
ModificationTime: 1565634396
PfmFamily: 17
TTFWeight: 900
TTFWidth: 5
LineGap: 410
VLineGap: 0
OS2TypoAscent: 3276
OS2TypoAOffset: 0
OS2TypoDescent: -820
OS2TypoDOffset: 0
OS2TypoLinegap: 410
OS2WinAscent: 4096
OS2WinAOffset: 0
OS2WinDescent: 1638
OS2WinDOffset: 0
HheadAscent: 4096
HheadAOffset: 0
HheadDescent: -820
HheadDOffset: 0
OS2CapHeight: 700
OS2XHeight: 460
OS2FamilyClass: 768
OS2Vendor: 'PfEd'
OS2UnicodeRanges: 00000001.00000000.00000000.00000000
Lookup: 1 0 0 "'ss02' Style Set 2 lookup 4" { "'ss02' Style Set 2 lookup 4-1"  } ['ss02' ('DFLT' <'dflt' > 'grek' <'dflt' > 'latn' <'dflt' > ) ]
Lookup: 1 0 0 "'ss03' Style Set 3 lookup 5" { "'ss03' Style Set 3 lookup 5-1"  } ['ss03' ('DFLT' <'dflt' > 'grek' <'dflt' > 'latn' <'dflt' > ) ]
Lookup: 1 0 0 "'ss01' Style Set 1 lookup 2" { "'ss01' Style Set 1 lookup 2-1"  } ['ss01' ('DFLT' <'dflt' > 'grek' <'dflt' > 'latn' <'dflt' > ) ]
Lookup: 5 0 0 "'calt' Contextual Alternates lookup 3" { "'calt' Contextual Alternates lookup 3-1"  } ['calt' ('DFLT' <'dflt' > 'grek' <'dflt' > 'latn' <'dflt' > ) ]
Lookup: 4 0 1 "'liga' Standard Ligatures lookup 0" { "'liga' Standard Ligatures lookup 0-1"  } ['liga' ('DFLT' <'dflt' > 'grek' <'dflt' > 'latn' <'dflt' > ) ]
Lookup: 258 0 0 "'kern' Horizontal Kerning lookup 0" { "kerning like they all do" [150,0,6] } ['kern' ('DFLT' <'dflt' > 'grek' <'dflt' > 'latn' <'dflt' > ) ]
MarkAttachClasses: 1
DEI: 91125
KernClass2: 30 27 "kerning like they all do"

StartChar: ampersand
Encoding: 38 38 0
GlifName: ampersand
Width: 3764
Flags: HMW
LayerCount: 2
Fore
SplineSet
2556 1884 m 1
 3538 1884 l 1
 3538 1860 l 1
 2556 1860 l 1
 2556 1884 l 1
3122 1876 m 1
 3028 962 2466 -40 1224 -40 c 0
 474 -40 164 316 164 738 c 0
 164 1438 1188 1614 1458 1790 c 0
 1778 2016 1970 1918 1970 2622 c 0
 1970 2896 1930 3092 1778 3092 c 0
 1646 3092 1582 2920 1582 2744 c 0
 1582 2560 1724 2270 1900 2008 c 2
 3194 24 l 1
 3682 24 l 1
 3682 0 l 1
 2232 0 l 1
 876 2008 l 2
 770 2164 688 2366 688 2510 c 0
 688 2878 1118 3112 1798 3112 c 0
 2442 3112 2806 2936 2806 2642 c 0
 2806 2142 2102 2250 1426 1762 c 0
 1180 1586 1074 1680 1074 1114 c 0
 1074 582 1380 118 1766 118 c 0
 2368 118 3014 918 3096 1876 c 1
 3122 1876 l 1
EndSplineSet
EndChar

StartChar: period
Encoding: 46 46 1
GlifName: period
Width: 1310
Flags: HMW
LayerCount: 2
Fore
SplineSet
164 450 m 0
 164 720 386 942 656 942 c 0
 926 942 1146 720 1146 450 c 0
 1146 180 926 -40 656 -40 c 0
 386 -40 164 180 164 450 c 0
EndSplineSet
EndChar

StartChar: zero
Encoding: 48 48 2
GlifName: zero
Width: 2866
Flags: HMW
LayerCount: 2
Fore
SplineSet
1434 -40 m 0
 684 -40 164 622 164 1536 c 0
 164 2450 726 3112 1434 3112 c 0
 2142 3112 2704 2450 2704 1536 c 0
 2704 622 2184 -40 1434 -40 c 0
1434 3092 m 0
 1172 3092 1126 2486 1126 1536 c 0
 1126 586 1130 -20 1434 -20 c 0
 1738 -20 1740 586 1740 1536 c 0
 1740 2486 1738 3092 1434 3092 c 0
EndSplineSet
EndChar

StartChar: one
Encoding: 49 49 3
GlifName: one
Width: 2272
VWidth: 4730
Flags: HMW
LayerCount: 2
Fore
SplineSet
204 24 m 1
 2068 24 l 1
 2068 0 l 1
 204 0 l 1
 204 24 l 1
274 3072 m 1
 1618 3072 l 1
 1618 12 l 1
 738 12 l 1
 738 3048 l 1
 274 3048 l 1
 274 3072 l 1
EndSplineSet
EndChar

StartChar: two
Encoding: 50 50 4
GlifName: two
Width: 2662
VWidth: 4730
Flags: HMW
LayerCount: 2
Fore
SplineSet
2520 0 m 1
 164 0 l 1
 164 552 l 1
 1008 1086 l 2
 1356 1312 1532 1580 1532 2088 c 0
 1532 2636 1308 2990 988 2990 c 0
 582 2990 238 2654 234 2260 c 1
 296 2468 474 2630 700 2630 c 0
 1016 2630 1220 2420 1220 2154 c 0
 1220 1868 942 1668 676 1668 c 0
 410 1668 200 1872 200 2248 c 0
 200 2728 648 3112 1332 3112 c 0
 2032 3112 2434 2784 2434 2334 c 0
 2434 1802 1852 1570 1466 1332 c 2
 704 860 l 1
 2494 860 l 1
 2494 1168 l 1
 2520 1168 l 1
 2520 0 l 1
EndSplineSet
EndChar

StartChar: three
Encoding: 51 51 5
GlifName: three
Width: 2542
VWidth: 4730
Flags: HMW
LayerCount: 2
Fore
SplineSet
2380 860 m 0
 2380 286 1810 -40 1150 -40 c 0
 446 -40 102 386 102 762 c 0
 102 1052 308 1254 574 1254 c 0
 820 1254 1000 1072 1000 802 c 0
 1000 548 782 368 540 368 c 0
 380 368 270 422 188 524 c 1
 274 282 566 16 1020 16 c 0
 1426 16 1474 352 1474 860 c 0
 1474 1286 1360 1646 872 1646 c 1
 872 1668 l 1
 1942 1668 2380 1352 2380 860 c 0
872 1650 m 1
 872 1672 l 1
 1318 1672 1352 2116 1352 2420 c 0
 1352 2764 1282 3056 1040 3056 c 0
 770 3056 488 2888 386 2728 c 1
 472 2830 594 2864 704 2864 c 0
 904 2864 1102 2700 1102 2454 c 0
 1102 2188 890 1998 664 1998 c 0
 418 1998 226 2146 226 2416 c 0
 226 2834 732 3108 1150 3108 c 0
 1768 3108 2256 2830 2256 2380 c 0
 2256 1970 1900 1650 872 1650 c 1
EndSplineSet
EndChar

StartChar: four
Encoding: 52 52 6
GlifName: four
Width: 2804
VWidth: 4730
Flags: HMW
LayerCount: 2
Fore
SplineSet
2622 24 m 1
 2622 0 l 1
 1044 0 l 1
 1044 24 l 1
 1434 24 l 1
 1434 2650 l 1
 188 892 l 1
 2764 892 l 1
 2764 868 l 1
 144 868 l 1
 1700 3072 l 1
 2314 3072 l 1
 2314 24 l 1
 2622 24 l 1
EndSplineSet
Substitution2: "'ss03' Style Set 3 lookup 5-1" four.alt
EndChar

StartChar: five
Encoding: 53 53 7
GlifName: five
Width: 2334
VWidth: 4730
Flags: HMW
LayerCount: 2
Fore
SplineSet
2068 2212 m 1
 218 2212 l 1
 218 1380 l 1
 192 1380 l 1
 192 3072 l 1
 2044 3072 l 1
 2044 3298 l 1
 2068 3298 l 1
 2068 2212 l 1
86 344 m 1
 160 160 450 0 754 0 c 0
 1118 0 1290 332 1290 880 c 0
 1290 1510 1176 1744 852 1744 c 0
 586 1744 332 1598 230 1380 c 1
 204 1380 l 1
 310 1614 578 1802 1032 1802 c 0
 1732 1802 2212 1494 2212 880 c 0
 2212 306 1626 -40 884 -40 c 0
 426 -40 -40 152 -40 610 c 0
 -40 900 172 1110 438 1110 c 0
 704 1110 918 942 918 656 c 0
 918 390 680 164 406 164 c 0
 262 164 156 238 86 344 c 1
EndSplineSet
EndChar

StartChar: six
Encoding: 54 54 8
GlifName: six
Width: 2702
VWidth: 4730
Flags: HMW
LayerCount: 2
Fore
SplineSet
1638 1024 m 0
 1638 1778 1560 1942 1400 1942 c 0
 1204 1942 1146 1760 1146 1146 c 1
 1126 1146 l 1
 1126 1732 1142 2028 1560 2028 c 0
 2056 2028 2580 1720 2580 1024 c 0
 2580 410 2110 -40 1410 -40 c 0
 710 -40 204 410 204 1270 c 0
 204 2266 1032 3112 2274 3112 c 1
 2274 3092 l 1
 1520 3092 1142 2250 1142 1418 c 1
 1146 1146 l 1
 1146 392 1222 -16 1422 -16 c 0
 1622 -16 1638 352 1638 1024 c 0
EndSplineSet
EndChar

StartChar: seven
Encoding: 55 55 9
GlifName: seven
Width: 2354
VWidth: 4730
Flags: HMW
LayerCount: 2
Fore
SplineSet
524 434 m 0
 524 758 998 1106 1318 1548 c 0
 1440 1716 1530 1836 1748 2192 c 1
 188 2192 l 1
 188 1884 l 1
 164 1884 l 1
 164 3072 l 1
 2314 3072 l 1
 2314 3072 1748 2098 1392 1590 c 0
 1174 1278 1122 1220 1122 1114 c 0
 1122 896 1548 836 1548 442 c 0
 1548 168 1344 -40 1040 -40 c 0
 758 -40 524 110 524 434 c 0
EndSplineSet
EndChar

StartChar: eight
Encoding: 56 56 10
GlifName: eight
Width: 2662
VWidth: 4730
Flags: HMW
LayerCount: 2
Fore
SplineSet
1146 2294 m 0
 1146 1746 1214 1618 1332 1618 c 0
 1450 1618 1516 1746 1516 2294 c 0
 1516 2802 1450 3032 1332 3032 c 0
 1214 3032 1146 2802 1146 2294 c 0
246 2294 m 0
 246 2744 632 3112 1332 3112 c 0
 2032 3112 2416 2744 2416 2294 c 0
 2416 1844 2032 1556 1332 1556 c 0
 632 1556 246 1844 246 2294 c 0
1064 778 m 0
 1064 312 1132 40 1332 40 c 0
 1532 40 1598 312 1598 778 c 0
 1598 1244 1532 1536 1332 1536 c 0
 1132 1536 1064 1244 1064 778 c 0
164 778 m 0
 164 1270 550 1598 1332 1598 c 0
 2114 1598 2498 1270 2498 778 c 0
 2498 286 2114 -40 1332 -40 c 0
 550 -40 164 286 164 778 c 0
EndSplineSet
EndChar

StartChar: A
Encoding: 65 65 12
GlifName: A_
Width: 3398
Flags: HMW
LayerCount: 2
Fore
SplineSet
62 24 m 1
 962 24 l 1
 962 0 l 1
 62 0 l 1
 62 24 l 1
1740 24 m 1
 3338 24 l 1
 3338 0 l 1
 1740 0 l 1
 1740 24 l 1
798 1016 m 1
 2110 1016 l 1
 2110 992 l 1
 798 992 l 1
 798 1016 l 1
1278 2306 m 1
 466 0 l 1
 438 0 l 1
 1548 3134 l 1
 1966 3134 l 1
 3052 0 l 1
 2028 0 l 1
 1278 2306 l 1
EndSplineSet
EndChar

StartChar: B
Encoding: 66 66 13
GlifName: B_
Width: 3132
Flags: HMW
LayerCount: 2
Fore
SplineSet
1658 1568 m 2
 1126 1568 l 1
 1126 1590 l 1
 1496 1590 l 2
 1766 1590 1946 1786 1946 2274 c 0
 1946 2762 1766 3048 1496 3048 c 2
 62 3048 l 1
 62 3072 l 1
 1658 3072 l 2
 2400 3072 2846 2846 2846 2314 c 0
 2846 1822 2440 1568 1658 1568 c 2
430 3072 m 1
 1310 3072 l 1
 1310 0 l 1
 430 0 l 1
 430 3072 l 1
1740 0 m 2
 62 0 l 1
 62 24 l 1
 1536 24 l 2
 1848 24 2028 372 2028 860 c 0
 2028 1348 1848 1564 1536 1564 c 2
 1126 1564 l 1
 1126 1586 l 1
 1740 1586 l 2
 2440 1586 2970 1392 2970 778 c 0
 2970 204 2522 0 1740 0 c 2
EndSplineSet
EndChar

StartChar: C
Encoding: 67 67 14
GlifName: C_
Width: 3010
Flags: HMW
LayerCount: 2
Fore
SplineSet
2786 3072 m 1
 2806 3072 l 1
 2806 2110 l 1
 2688 2322 2462 2696 2278 2880 c 1
 2786 3072 l 1
2806 2110 m 1
 2778 2110 l 1
 2492 2668 2216 3068 1762 3068 c 0
 1254 3068 1126 2282 1126 1536 c 0
 1126 790 1254 4 1762 4 c 0
 2310 4 2564 430 2818 962 c 1
 2846 962 l 1
 2600 376 2306 -40 1720 -40 c 0
 724 -40 164 622 164 1536 c 0
 164 2450 724 3112 1720 3112 c 0
 2244 3112 2520 2696 2806 2110 c 1
2846 962 m 1
 2846 0 l 1
 2826 0 l 1
 2360 212 l 1
 2552 400 2752 766 2846 962 c 1
EndSplineSet
EndChar

StartChar: D
Encoding: 68 68 15
GlifName: D_
Width: 3338
Flags: HMW
LayerCount: 2
Fore
SplineSet
430 3072 m 1
 1310 3072 l 1
 1310 0 l 1
 430 0 l 1
 430 3072 l 1
1536 0 m 2
 62 0 l 1
 62 24 l 1
 1536 24 l 2
 2044 24 2212 668 2212 1536 c 0
 2212 2404 2002 3048 1536 3048 c 2
 62 3048 l 1
 62 3072 l 1
 1536 3072 l 2
 2572 3072 3174 2490 3174 1536 c 0
 3174 582 2532 0 1536 0 c 2
EndSplineSet
EndChar

StartChar: E
Encoding: 69 69 16
GlifName: E_
Width: 2744
Flags: HMW
LayerCount: 2
Fore
SplineSet
2596 922 m 1
 2622 922 l 1
 2622 0 l 1
 62 0 l 1
 62 24 l 1
 1516 24 l 2
 2078 24 2474 402 2596 922 c 1
430 3072 m 1
 1310 3072 l 1
 1310 0 l 1
 430 0 l 1
 430 3072 l 1
62 3072 m 1
 2580 3072 l 1
 2580 2232 l 1
 2556 2232 l 1
 2434 2670 2036 3048 1556 3048 c 2
 62 3048 l 1
 62 3072 l 1
1982 1016 m 1
 1860 1290 1586 1576 1352 1576 c 2
 1106 1576 l 1
 1106 1602 l 1
 1352 1602 l 2
 1586 1602 1860 1868 1982 2142 c 1
 2008 2142 l 1
 2008 1016 l 1
 1982 1016 l 1
EndSplineSet
EndChar

StartChar: F
Encoding: 70 70 17
GlifName: F_
Width: 2620
Flags: HMW
LayerCount: 2
Fore
SplineSet
62 3072 m 1
 2498 3072 l 1
 2498 2232 l 1
 2474 2232 l 1
 2352 2670 2036 3048 1598 3048 c 2
 62 3048 l 1
 62 3072 l 1
62 24 m 1
 1720 24 l 1
 1720 0 l 1
 62 0 l 1
 62 24 l 1
430 3072 m 1
 1310 3072 l 1
 1310 0 l 1
 430 0 l 1
 430 3072 l 1
1942 934 m 1
 1820 1208 1606 1516 1332 1516 c 2
 1064 1516 l 1
 1064 1540 l 1
 1332 1540 l 2
 1606 1540 1820 1828 1942 2102 c 1
 1966 2102 l 1
 1966 934 l 1
 1942 934 l 1
EndSplineSet
EndChar

StartChar: G
Encoding: 71 71 18
GlifName: G_
Width: 3276
Flags: HMW
LayerCount: 2
Fore
SplineSet
2970 2110 m 1
 2794 2532 2552 2748 2356 2908 c 1
 2950 3072 l 1
 2970 3072 l 1
 2970 2110 l 1
1720 1180 m 1
 3236 1180 l 1
 3236 1156 l 1
 1720 1156 l 1
 1720 1180 l 1
2150 1164 m 1
 3072 1164 l 1
 3072 594 l 1
 2662 294 2408 -40 1740 -40 c 0
 766 -40 164 540 164 1536 c 0
 164 2532 970 3112 1802 3112 c 0
 2326 3112 2806 2614 2970 2110 c 1
 2946 2110 l 1
 2782 2486 2384 3064 1868 3064 c 0
 1360 3064 1126 2282 1126 1536 c 0
 1126 790 1252 -8 1740 -8 c 0
 1920 -8 2068 258 2150 512 c 1
 2150 1164 l 1
EndSplineSet
EndChar

StartChar: H
Encoding: 72 72 19
GlifName: H_
Width: 3480
Flags: HMW
LayerCount: 2
Fore
SplineSet
1228 1528 m 1
 2252 1528 l 1
 2252 1504 l 1
 1228 1504 l 1
 1228 1528 l 1
1844 24 m 1
 3420 24 l 1
 3420 0 l 1
 1844 0 l 1
 1844 24 l 1
62 24 m 1
 1638 24 l 1
 1638 0 l 1
 62 0 l 1
 62 24 l 1
1844 3072 m 1
 3420 3072 l 1
 3420 3048 l 1
 1844 3048 l 1
 1844 3072 l 1
62 3072 m 1
 1638 3072 l 1
 1638 3048 l 1
 62 3048 l 1
 62 3072 l 1
2170 3072 m 1
 3052 3072 l 1
 3052 0 l 1
 2170 0 l 1
 2170 3072 l 1
430 3072 m 1
 1310 3072 l 1
 1310 0 l 1
 430 0 l 1
 430 3072 l 1
EndSplineSet
EndChar

StartChar: I
Encoding: 73 73 20
GlifName: I_
Width: 1944
Flags: HMW
LayerCount: 2
Fore
SplineSet
62 24 m 1
 1884 24 l 1
 1884 0 l 1
 62 0 l 1
 62 24 l 1
62 3072 m 1
 1884 3072 l 1
 1884 3048 l 1
 62 3048 l 1
 62 3072 l 1
512 3072 m 1
 1392 3072 l 1
 1392 0 l 1
 512 0 l 1
 512 3072 l 1
EndSplineSet
EndChar

StartChar: J
Encoding: 74 74 21
GlifName: J_
Width: 2624
Flags: HMW
LayerCount: 2
Fore
SplineSet
742 3072 m 1
 2564 3072 l 1
 2564 3048 l 1
 742 3048 l 1
 742 3072 l 1
1274 3072 m 1
 2154 3072 l 1
 2154 696 l 1
 1908 204 1626 -122 926 -122 c 0
 406 -122 40 102 40 512 c 0
 40 806 276 1024 562 1024 c 0
 828 1024 1036 826 1036 536 c 0
 1036 290 840 50 582 50 c 0
 414 50 266 102 204 172 c 1
 322 -4 608 -98 902 -98 c 0
 1192 -98 1274 204 1274 778 c 2
 1274 3072 l 1
EndSplineSet
Substitution2: "'ss02' Style Set 2 lookup 4-1" J.alt
EndChar

StartChar: K
Encoding: 75 75 22
GlifName: K_
Width: 3502
Flags: HMW
LayerCount: 2
Fore
SplineSet
62 24 m 1
 1638 24 l 1
 1638 0 l 1
 62 0 l 1
 62 24 l 1
62 3072 m 1
 1720 3072 l 1
 1720 3048 l 1
 62 3048 l 1
 62 3072 l 1
430 3072 m 1
 1310 3072 l 1
 1310 0 l 1
 430 0 l 1
 430 3072 l 1
742 888 m 1
 704 888 l 1
 2810 3064 l 1
 2846 3064 l 1
 742 888 l 1
1802 24 m 1
 3482 24 l 1
 3482 0 l 1
 1802 0 l 1
 1802 24 l 1
3298 3048 m 1
 2314 3048 l 1
 2314 3072 l 1
 3298 3072 l 1
 3298 3048 l 1
3162 0 m 1
 2180 0 l 1
 1324 1504 l 1
 1916 2126 l 1
 3162 0 l 1
EndSplineSet
EndChar

StartChar: L
Encoding: 76 76 23
GlifName: L_
Width: 2702
Flags: HMW
LayerCount: 2
Fore
SplineSet
430 3072 m 5
 1310 3072 l 5
 1310 0 l 1
 430 0 l 1
 430 3072 l 5
62 3072 m 5
 1680 3072 l 5
 1680 3048 l 1
 62 3048 l 1
 62 3072 l 5
2622 0 m 1
 62 0 l 1
 62 24 l 1
 1516 24 l 2
 2078 24 2474 402 2596 922 c 1
 2622 922 l 1
 2622 0 l 1
EndSplineSet
EndChar

StartChar: M
Encoding: 77 77 24
GlifName: M_
Width: 3850
Flags: HMW
LayerCount: 2
Fore
SplineSet
3788 3072 m 1
 3788 3048 l 1
 3502 3048 l 1
 3502 0 l 1
 2622 0 l 1
 2622 3072 l 1
 3788 3072 l 1
82 24 m 1
 712 24 l 1
 712 0 l 1
 82 0 l 1
 82 24 l 1
2294 24 m 1
 3788 24 l 1
 3788 0 l 1
 2294 0 l 1
 2294 24 l 1
1962 1220 m 1
 2610 3072 l 1
 2634 3072 l 1
 1552 -40 l 1
 1520 -40 l 1
 380 3072 l 1
 1266 3072 l 1
 1962 1220 l 1
372 3048 m 1
 62 3048 l 1
 62 3072 l 1
 402 3072 l 1
 402 0 l 1
 372 0 l 1
 372 3048 l 1
EndSplineSet
EndChar

StartChar: N
Encoding: 78 78 25
GlifName: N_
Width: 3144
Flags: HMW
LayerCount: 2
Fore
SplineSet
2634 3072 m 1
 2658 3072 l 1
 2658 -40 l 1
 2622 -40 l 1
 472 3072 l 1
 1516 3072 l 1
 2634 1462 l 1
 2634 3072 l 1
2184 3072 m 1
 3088 3072 l 1
 3088 3048 l 1
 2184 3048 l 1
 2184 3072 l 1
62 24 m 1
 954 24 l 1
 954 0 l 1
 62 0 l 1
 62 24 l 1
472 3048 m 1
 62 3048 l 1
 62 3072 l 1
 500 3072 l 1
 500 0 l 1
 472 0 l 1
 472 3048 l 1
EndSplineSet
EndChar

StartChar: O
Encoding: 79 79 26
GlifName: O_
Width: 3276
Flags: HMW
LayerCount: 2
Fore
SplineSet
1638 -40 m 0
 724 -40 164 622 164 1536 c 0
 164 2450 766 3112 1638 3112 c 0
 2510 3112 3112 2450 3112 1536 c 0
 3112 622 2552 -40 1638 -40 c 0
1638 3092 m 0
 1252 3092 1126 2486 1126 1536 c 0
 1126 586 1212 -20 1638 -20 c 0
 2064 -20 2150 586 2150 1536 c 0
 2150 2486 2024 3092 1638 3092 c 0
EndSplineSet
EndChar

StartChar: P
Encoding: 80 80 27
GlifName: P_
Width: 3010
Flags: HMW
LayerCount: 2
Fore
SplineSet
430 3072 m 1
 1310 3072 l 1
 1310 0 l 1
 430 0 l 1
 430 3072 l 1
62 24 m 1
 1680 24 l 1
 1680 0 l 1
 62 0 l 1
 62 24 l 1
1680 1380 m 2
 1024 1380 l 1
 1024 1404 l 1
 1516 1404 l 2
 1828 1404 1926 1848 1926 2212 c 0
 1926 2576 1828 3048 1516 3048 c 2
 62 3048 l 1
 62 3072 l 1
 1680 3072 l 2
 2504 3072 2868 2744 2868 2212 c 0
 2868 1680 2504 1380 1680 1380 c 2
EndSplineSet
EndChar

StartChar: Q
Encoding: 81 81 28
GlifName: Q_
Width: 3276
Flags: HMW
LayerCount: 2
Fore
SplineSet
1638 -40 m 0
 724 -40 164 622 164 1536 c 0
 164 2450 766 3112 1638 3112 c 0
 2510 3112 3112 2450 3112 1536 c 0
 3112 622 2552 -40 1638 -40 c 0
1638 3092 m 0
 1252 3092 1126 2486 1126 1536 c 0
 1126 586 1212 -20 1638 -20 c 0
 2064 -20 2150 586 2150 1536 c 0
 2150 2486 2024 3092 1638 3092 c 0
2580 -1000 m 1
 2580 -1024 l 1
 1420 -1024 1146 -874 1146 40 c 1
 1474 -54 1798 -54 2110 40 c 1
 2110 -706 2114 -1000 2580 -1000 c 1
EndSplineSet
EndChar

StartChar: R
Encoding: 82 82 29
GlifName: R_
Width: 3234
Flags: HMW
LayerCount: 2
Fore
SplineSet
1576 1568 m 2
 798 1568 l 1
 798 1590 l 1
 1372 1590 l 2
 1766 1590 1946 1786 1946 2314 c 0
 1946 2842 1766 3048 1372 3048 c 2
 62 3048 l 1
 62 3072 l 1
 1576 3072 l 2
 2318 3072 2846 2846 2846 2314 c 0
 2846 1782 2358 1568 1576 1568 c 2
62 24 m 1
 1680 24 l 1
 1680 0 l 1
 62 0 l 1
 62 24 l 1
430 3072 m 1
 1310 3072 l 1
 1310 0 l 1
 430 0 l 1
 430 3072 l 1
3194 62 m 1
 3128 26 2892 -40 2580 -40 c 0
 1298 -40 2400 1564 1392 1564 c 2
 798 1564 l 1
 798 1576 l 1
 1966 1576 l 2
 3248 1576 2450 24 2954 24 c 0
 3040 24 3128 58 3186 82 c 1
 3194 62 l 1
EndSplineSet
Substitution2: "'ss01' Style Set 1 lookup 2-1" R.alt
EndChar

StartChar: S
Encoding: 83 83 30
GlifName: S_
Width: 2600
Flags: HMW
LayerCount: 2
Fore
SplineSet
2274 2110 m 1
 2244 2110 l 1
 1998 2668 1684 3080 1184 3080 c 0
 914 3080 778 2884 778 2642 c 0
 778 2008 2438 2170 2438 942 c 0
 2438 328 1910 -62 1332 -62 c 0
 694 -62 386 552 164 1044 c 1
 192 1044 l 1
 410 568 722 -32 1324 -32 c 0
 1676 -32 1864 230 1864 512 c 0
 1864 1228 204 922 204 2232 c 0
 204 2806 680 3112 1176 3112 c 0
 1700 3112 2028 2688 2274 2110 c 1
2252 3112 m 1
 2274 3112 l 1
 2274 2110 l 1
 2148 2392 1924 2740 1740 2908 c 1
 2252 3112 l 1
184 -40 m 1
 164 -40 l 1
 164 1044 l 1
 320 712 560 328 724 180 c 1
 184 -40 l 1
EndSplineSet
EndChar

StartChar: T
Encoding: 84 84 31
GlifName: T_
Width: 2968
Flags: HMW
LayerCount: 2
Fore
SplineSet
594 24 m 1
 2376 24 l 1
 2376 0 l 1
 594 0 l 1
 594 24 l 1
1044 3060 m 1
 1926 3060 l 1
 1926 0 l 1
 1044 0 l 1
 1044 3060 l 1
2048 3048 m 2
 922 3048 l 2
 524 3048 208 2548 86 2028 c 1
 62 2028 l 1
 62 3072 l 1
 2908 3072 l 1
 2908 2028 l 1
 2884 2028 l 1
 2762 2548 2446 3048 2048 3048 c 2
EndSplineSet
EndChar

StartChar: U
Encoding: 85 85 32
GlifName: U_
Width: 3072
Flags: HMW
LayerCount: 2
Fore
SplineSet
2212 3072 m 1
 3010 3072 l 1
 3010 3048 l 1
 2212 3048 l 1
 2212 3072 l 1
62 3072 m 1
 1720 3072 l 1
 1720 3048 l 1
 62 3048 l 1
 62 3072 l 1
2588 3072 m 1
 2614 3072 l 1
 2614 942 l 2
 2614 266 2306 -62 1618 -62 c 0
 786 -62 430 234 430 942 c 2
 430 3072 l 1
 1310 3072 l 1
 1310 984 l 2
 1310 444 1382 8 1848 8 c 0
 2258 8 2588 278 2588 942 c 2
 2588 3072 l 1
EndSplineSet
EndChar

StartChar: V
Encoding: 86 86 33
GlifName: V_
Width: 3358
Flags: HMW
LayerCount: 2
Fore
SplineSet
3318 3048 m 1
 2416 3048 l 1
 2416 3072 l 1
 3318 3072 l 1
 3318 3048 l 1
1802 3048 m 1
 40 3048 l 1
 40 3072 l 1
 1802 3072 l 1
 1802 3048 l 1
2102 766 m 1
 2912 3072 l 1
 2940 3072 l 1
 1830 -62 l 1
 1414 -62 l 1
 328 3072 l 1
 1352 3072 l 1
 2102 766 l 1
EndSplineSet
EndChar

StartChar: W
Encoding: 87 87 34
GlifName: W_
Width: 5038
Flags: HMW
LayerCount: 2
Fore
SplineSet
2740 1946 m 1
 1974 -40 l 1
 1618 -40 l 1
 324 3072 l 1
 1356 3072 l 1
 2278 832 l 1
 2740 2024 l 1
 2740 1946 l 1
3138 1868 m 1
 3138 1942 l 1
 3600 3072 l 1
 3624 3072 l 1
 3138 1868 l 1
4998 3048 m 1
 4178 3048 l 1
 4178 3072 l 1
 4998 3072 l 1
 4998 3048 l 1
2790 3072 m 1
 3710 832 l 1
 4588 3072 l 1
 4612 3072 l 1
 3408 -40 l 1
 3178 -40 l 1
 1880 3072 l 1
 2790 3072 l 1
4014 3048 m 1
 40 3048 l 1
 40 3072 l 1
 4014 3072 l 1
 4014 3048 l 1
EndSplineSet
EndChar

StartChar: X
Encoding: 88 88 35
GlifName: X_
Width: 3480
Flags: HMW
LayerCount: 2
Fore
SplineSet
1754 1544 m 1
 1716 1544 l 1
 2768 3064 l 1
 2798 3064 l 1
 1754 1544 l 1
508 0 m 1
 472 0 l 1
 1684 1708 l 1
 1720 1708 l 1
 508 0 l 1
1802 24 m 1
 3440 24 l 1
 3440 0 l 1
 1802 0 l 1
 1802 24 l 1
40 24 m 1
 1024 24 l 1
 1024 0 l 1
 40 0 l 1
 40 24 l 1
1822 3048 m 1
 184 3048 l 1
 184 3072 l 1
 1822 3072 l 1
 1822 3048 l 1
3216 3048 m 1
 2314 3048 l 1
 2314 3072 l 1
 3216 3072 l 1
 3216 3048 l 1
3178 0 m 1
 2196 0 l 1
 430 3072 l 1
 1396 3072 l 1
 3178 0 l 1
EndSplineSet
EndChar

StartChar: Y
Encoding: 89 89 36
GlifName: Y_
Width: 3132
Flags: HMW
LayerCount: 2
Fore
SplineSet
3092 3048 m 1
 2232 3048 l 1
 2232 3072 l 1
 3092 3072 l 1
 3092 3048 l 1
1720 3048 m 1
 40 3048 l 1
 40 3072 l 1
 1720 3072 l 1
 1720 3048 l 1
798 24 m 1
 2458 24 l 1
 2458 0 l 1
 798 0 l 1
 798 24 l 1
2036 1606 m 1
 2708 3064 l 1
 2740 3064 l 1
 2048 1568 l 1
 2048 0 l 1
 1168 0 l 1
 1168 1474 l 1
 286 3072 l 1
 1310 3072 l 1
 2036 1606 l 1
EndSplineSet
EndChar

StartChar: Z
Encoding: 90 90 37
GlifName: Z_
Width: 2764
Flags: HMW
LayerCount: 2
Fore
SplineSet
122 3072 m 1
 2580 3072 l 1
 2580 3048 l 1
 1044 24 l 1
 1638 24 l 2
 2200 24 2432 382 2596 902 c 1
 2622 902 l 1
 2622 0 l 1
 40 0 l 1
 40 24 l 1
 1576 3048 l 1
 1106 3048 l 2
 544 3048 312 2690 148 2252 c 1
 122 2252 l 1
 122 3072 l 1
EndSplineSet
EndChar

StartChar: a
Encoding: 97 97 38
GlifName: a
Width: 2588
VWidth: 4730
Flags: HMW
LayerCount: 2
Fore
SplineSet
2588 258 m 1
 2494 54 2242 -40 1942 -40 c 0
 1626 -40 1360 58 1360 340 c 2
 1360 1250 l 2
 1360 1606 1232 1884 946 1884 c 0
 758 1884 586 1808 516 1758 c 1
 832 1884 1134 1720 1134 1466 c 0
 1134 1262 914 1110 688 1110 c 0
 442 1110 270 1270 270 1458 c 0
 270 1732 628 1916 1082 1916 c 0
 1820 1916 2138 1664 2138 1250 c 2
 2138 204 l 2
 2138 122 2192 62 2290 62 c 0
 2352 62 2482 102 2568 266 c 1
 2588 258 l 1
1024 1040 m 2
 1572 1040 l 1
 1572 1016 l 1
 1310 1016 l 2
 1122 1016 954 798 954 544 c 0
 954 326 1024 238 1126 238 c 0
 1212 238 1360 328 1360 742 c 1
 1380 742 l 1
 1380 234 1134 -40 680 -40 c 0
 356 -40 126 158 126 462 c 0
 126 806 442 1040 1024 1040 c 2
EndSplineSet
EndChar

StartChar: b
Encoding: 98 98 39
GlifName: b
Width: 2718
VWidth: 4730
Flags: HMW
LayerCount: 2
Fore
SplineSet
1090 942 m 0
 1090 1564 1314 1922 1748 1922 c 0
 2194 1922 2618 1556 2618 942 c 0
 2618 328 2194 -40 1748 -40 c 0
 1318 -40 1090 320 1090 942 c 0
1110 942 m 0
 1110 336 1360 40 1556 40 c 0
 1696 40 1736 312 1736 942 c 0
 1736 1572 1696 1840 1556 1840 c 0
 1360 1840 1110 1548 1110 942 c 0
332 3048 m 1
 46 3048 l 1
 46 3072 l 1
 1110 3072 l 1
 1110 0 l 1
 46 0 l 1
 46 24 l 1
 332 24 l 1
 332 3048 l 1
EndSplineSet
EndChar

StartChar: c
Encoding: 99 99 40
GlifName: c
Width: 2214
VWidth: 4730
Flags: HMW
LayerCount: 2
Fore
SplineSet
1912 1638 m 1
 1830 1748 1578 1892 1328 1892 c 0
 1046 1892 1028 1328 1028 942 c 0
 1028 476 1118 24 1368 24 c 0
 1684 24 1938 246 2040 586 c 1
 2064 586 l 1
 1958 230 1700 -40 1204 -40 c 0
 544 -40 106 246 106 942 c 0
 106 1556 486 1926 1228 1926 c 0
 1686 1926 2094 1672 2094 1336 c 0
 2094 1086 1922 938 1676 938 c 0
 1450 938 1236 1044 1236 1352 c 0
 1236 1618 1466 1740 1626 1740 c 0
 1774 1740 1846 1704 1912 1638 c 1
EndSplineSet
EndChar

StartChar: d
Encoding: 100 100 41
GlifName: d
Width: 2718
VWidth: 4730
Flags: HMW
LayerCount: 2
Fore
SplineSet
1634 942 m 0
 1634 320 1408 -40 974 -40 c 0
 528 -40 106 328 106 942 c 0
 106 1556 528 1922 974 1922 c 0
 1404 1922 1634 1564 1634 942 c 0
1614 942 m 0
 1614 1564 1356 1840 1168 1840 c 0
 1028 1840 988 1580 988 942 c 0
 988 304 1040 50 1180 50 c 0
 1368 50 1614 320 1614 942 c 0
2678 24 m 1
 2678 0 l 1
 1614 0 l 1
 1614 3048 l 1
 1328 3048 l 1
 1328 3072 l 1
 2392 3072 l 1
 2392 24 l 1
 2678 24 l 1
EndSplineSet
EndChar

StartChar: e
Encoding: 101 101 42
GlifName: e
Width: 2206
VWidth: 4730
Flags: HMW
LayerCount: 2
Fore
SplineSet
380 1056 m 1
 380 1082 l 1
 1318 1082 l 1
 1314 1476 1310 1900 1150 1900 c 0
 990 1900 946 1490 946 1024 c 0
 946 434 1012 16 1336 16 c 0
 1688 16 1978 250 2080 586 c 1
 2106 586 l 1
 2000 230 1700 -40 1164 -40 c 0
 546 -40 106 286 106 942 c 0
 106 1598 532 1926 1150 1926 c 0
 1760 1926 2102 1502 2102 1056 c 1
 380 1056 l 1
EndSplineSet
EndChar

StartChar: f
Encoding: 102 102 43
GlifName: f
Width: 1724
VWidth: 4730
Flags: HMW
LayerCount: 2
Fore
SplineSet
24 24 m 1
 1622 24 l 1
 1622 0 l 1
 24 0 l 1
 24 24 l 1
24 1884 m 1
 1704 1884 l 1
 1704 1860 l 1
 24 1860 l 1
 24 1884 l 1
2098 2822 m 1
 2036 2908 1892 3088 1576 3088 c 0
 1248 3088 1130 2732 1130 2212 c 2
 1130 0 l 1
 394 0 l 1
 394 2098 l 2
 394 2716 912 3112 1568 3112 c 0
 1940 3112 2196 2858 2196 2584 c 0
 2196 2334 2044 2166 1798 2166 c 0
 1572 2166 1364 2306 1364 2552 c 0
 1364 2786 1554 2958 1762 2958 c 0
 1914 2958 2024 2896 2098 2822 c 1
EndSplineSet
EndChar

StartChar: g
Encoding: 103 103 44
GlifName: g
Width: 2736
VWidth: 4730
Flags: HMW
LayerCount: 2
Fore
SplineSet
176 238 m 0
 176 558 716 676 1106 676 c 1
 1106 664 l 1
 930 664 618 626 618 508 c 0
 618 418 830 406 1056 406 c 0
 1200 406 1356 410 1470 410 c 0
 1778 410 2196 222 2196 -336 c 0
 2196 -832 1786 -1064 1130 -1064 c 0
 626 -1064 46 -942 46 -586 c 0
 46 -246 536 -204 720 -204 c 2
 762 -204 l 1
 660 -258 638 -434 638 -484 c 0
 638 -844 856 -1036 1168 -1036 c 0
 1508 -1036 2016 -958 2016 -586 c 0
 2016 -364 1724 -242 1458 -242 c 0
 1332 -242 1082 -242 992 -242 c 0
 624 -242 176 -138 176 238 c 0
946 1290 m 0
 946 904 968 680 1086 680 c 0
 1164 680 1224 904 1224 1290 c 0
 1224 1676 1164 1900 1086 1900 c 0
 1008 1900 946 1676 946 1290 c 0
148 1290 m 0
 148 1740 632 1926 1086 1926 c 0
 1540 1926 2024 1740 2024 1290 c 0
 2024 840 1540 656 1086 656 c 0
 632 656 148 840 148 1290 c 0
2654 1614 m 1
 2618 1736 2494 1880 2248 1880 c 0
 2010 1880 1778 1766 1696 1410 c 1
 1676 1422 l 1
 1758 1794 2002 1904 2248 1904 c 0
 2580 1904 2716 1668 2716 1512 c 0
 2716 1246 2548 1164 2404 1164 c 0
 2260 1164 2098 1252 2098 1470 c 0
 2098 1626 2216 1766 2392 1766 c 0
 2524 1766 2630 1688 2654 1614 c 1
EndSplineSet
EndChar

StartChar: h
Encoding: 104 104 45
GlifName: h
Width: 2686
VWidth: 4730
Flags: HMW
LayerCount: 2
Fore
SplineSet
1582 1328 m 2
 1582 1672 1548 1712 1434 1712 c 0
 1230 1712 1110 1300 1110 914 c 1
 1090 914 l 1
 1090 1332 1192 1926 1778 1926 c 0
 2216 1926 2360 1662 2360 1306 c 2
 2360 0 l 1
 1582 0 l 1
 1582 1328 l 2
1418 24 m 1
 2646 24 l 1
 2646 0 l 1
 1418 0 l 1
 1418 24 l 1
46 24 m 1
 1274 24 l 1
 1274 0 l 1
 46 0 l 1
 46 24 l 1
332 3048 m 1
 46 3048 l 1
 46 3072 l 1
 1110 3072 l 1
 1110 0 l 1
 332 0 l 1
 332 3048 l 1
EndSplineSet
EndChar

StartChar: i
Encoding: 105 105 46
GlifName: i
Width: 1420
VWidth: 4730
Flags: HMW
LayerCount: 2
Fore
SplineSet
66 24 m 1
 1418 24 l 1
 1418 0 l 1
 66 0 l 1
 66 24 l 1
250 2662 m 0
 250 2920 442 3112 700 3112 c 0
 958 3112 1150 2920 1150 2662 c 0
 1150 2404 958 2212 700 2212 c 0
 442 2212 250 2404 250 2662 c 0
352 1860 m 1
 66 1860 l 1
 66 1884 l 1
 1130 1884 l 1
 1130 0 l 1
 352 0 l 1
 352 1860 l 1
EndSplineSet
EndChar

StartChar: j
Encoding: 106 106 47
GlifName: j
Width: 1466
VWidth: 4730
Flags: HMW
LayerCount: 2
Fore
SplineSet
320 2662 m 0
 320 2920 512 3112 770 3112 c 0
 1028 3112 1220 2920 1220 2662 c 0
 1220 2404 1028 2212 770 2212 c 0
 512 2212 320 2404 320 2662 c 0
1192 1884 m 1
 1192 -50 l 2
 1192 -586 672 -1064 58 -1064 c 0
 -356 -1064 -692 -844 -692 -536 c 0
 -692 -290 -488 -118 -254 -118 c 0
 -28 -118 180 -258 180 -504 c 0
 180 -730 16 -898 -266 -898 c 0
 -470 -898 -586 -778 -606 -652 c 1
 -582 -844 -328 -1028 -20 -1028 c 0
 472 -1028 398 -430 398 90 c 2
 414 1860 l 1
 46 1860 l 1
 46 1884 l 1
 1192 1884 l 1
EndSplineSet
EndChar

StartChar: k
Encoding: 107 107 48
GlifName: k
Width: 2812
VWidth: 4730
Flags: HMW
LayerCount: 2
Fore
SplineSet
2658 0 m 1
 1704 0 l 1
 996 1110 l 1
 2192 1884 l 1
 2232 1884 l 1
 1606 1474 l 1
 2658 0 l 1
1474 24 m 1
 2814 24 l 1
 2814 0 l 1
 1474 0 l 1
 1474 24 l 1
2552 1860 m 1
 1638 1860 l 1
 1638 1884 l 1
 2552 1884 l 1
 2552 1860 l 1
46 24 m 1
 1356 24 l 1
 1356 0 l 1
 46 0 l 1
 46 24 l 1
414 3048 m 1
 46 3048 l 1
 46 3072 l 1
 1192 3072 l 1
 1192 0 l 1
 414 0 l 1
 414 3048 l 1
EndSplineSet
EndChar

StartChar: l
Encoding: 108 108 49
GlifName: l
Width: 1600
VWidth: 4730
Flags: HMW
LayerCount: 2
Fore
SplineSet
46 24 m 1
 1560 24 l 1
 1560 0 l 1
 46 0 l 1
 46 24 l 1
414 3048 m 1
 46 3048 l 1
 46 3072 l 1
 1192 3072 l 1
 1192 0 l 1
 414 0 l 1
 414 3048 l 1
EndSplineSet
EndChar

StartChar: m
Encoding: 109 109 50
GlifName: m
Width: 3772
VWidth: 4730
Flags: HMW
LayerCount: 2
Fore
SplineSet
2278 1306 m 2
 2278 0 l 1
 1500 0 l 1
 1500 1328 l 2
 1500 1672 1450 1720 1372 1720 c 0
 1224 1720 1110 1344 1110 914 c 1
 1090 914 l 1
 1090 1332 1150 1926 1736 1926 c 0
 2134 1926 2278 1662 2278 1306 c 2
46 24 m 1
 1254 24 l 1
 1254 0 l 1
 46 0 l 1
 46 24 l 1
1356 24 m 1
 2420 24 l 1
 2420 0 l 1
 1356 0 l 1
 1356 24 l 1
2524 24 m 1
 3732 24 l 1
 3732 0 l 1
 2524 0 l 1
 2524 24 l 1
332 1860 m 1
 46 1860 l 1
 46 1884 l 1
 1110 1884 l 1
 1110 0 l 1
 332 0 l 1
 332 1860 l 1
3444 1306 m 2
 3444 0 l 1
 2666 0 l 1
 2666 1328 l 2
 2666 1672 2618 1720 2540 1720 c 0
 2392 1720 2278 1344 2278 914 c 1
 2260 914 l 1
 2260 1332 2314 1926 2904 1926 c 0
 3302 1926 3444 1662 3444 1306 c 2
EndSplineSet
EndChar

StartChar: n
Encoding: 110 110 51
GlifName: n
Width: 2686
VWidth: 4730
Flags: HMW
LayerCount: 2
Fore
SplineSet
1582 1328 m 2
 1582 1672 1548 1712 1434 1712 c 0
 1230 1712 1110 1300 1110 914 c 1
 1090 914 l 1
 1090 1332 1192 1926 1778 1926 c 0
 2216 1926 2360 1662 2360 1306 c 2
 2360 0 l 1
 1582 0 l 1
 1582 1328 l 2
1418 24 m 1
 2646 24 l 1
 2646 0 l 1
 1418 0 l 1
 1418 24 l 1
46 24 m 1
 1274 24 l 1
 1274 0 l 1
 46 0 l 1
 46 24 l 1
332 1860 m 1
 46 1860 l 1
 46 1884 l 1
 1110 1884 l 1
 1110 0 l 1
 332 0 l 1
 332 1860 l 1
EndSplineSet
EndChar

StartChar: o
Encoding: 111 111 52
GlifName: o
Width: 2330
VWidth: 4730
Flags: HMW
LayerCount: 2
Fore
SplineSet
906 942 m 0
 906 352 1008 -16 1168 -16 c 0
 1328 -16 1430 352 1430 942 c 0
 1430 1532 1328 1900 1168 1900 c 0
 1008 1900 906 1532 906 942 c 0
106 942 m 0
 106 1474 508 1926 1168 1926 c 0
 1828 1926 2228 1474 2228 942 c 0
 2228 410 1828 -40 1168 -40 c 0
 508 -40 106 410 106 942 c 0
EndSplineSet
EndChar

StartChar: p
Encoding: 112 112 53
GlifName: p
Width: 2718
VWidth: 4730
Flags: HMW
LayerCount: 2
Fore
SplineSet
1090 942 m 0
 1090 1564 1314 1922 1748 1922 c 0
 2194 1922 2618 1556 2618 942 c 0
 2618 328 2194 -40 1748 -40 c 0
 1318 -40 1090 320 1090 942 c 0
1110 942 m 0
 1110 320 1372 40 1552 40 c 0
 1700 40 1736 328 1736 942 c 0
 1736 1556 1704 1840 1556 1840 c 0
 1368 1840 1110 1564 1110 942 c 0
46 -1000 m 1
 1396 -1000 l 1
 1396 -1024 l 1
 46 -1024 l 1
 46 -1000 l 1
332 1860 m 1
 46 1860 l 1
 46 1884 l 1
 1110 1884 l 1
 1110 -1024 l 1
 332 -1024 l 1
 332 1860 l 1
EndSplineSet
EndChar

StartChar: q
Encoding: 113 113 54
GlifName: q
Width: 2718
VWidth: 4730
Flags: HMW
LayerCount: 2
Fore
SplineSet
1634 942 m 0
 1634 320 1408 -40 974 -40 c 0
 528 -40 106 328 106 942 c 0
 106 1556 528 1922 974 1922 c 0
 1404 1922 1634 1564 1634 942 c 0
1614 942 m 0
 1614 1564 1356 1840 1168 1840 c 0
 1028 1840 988 1556 988 942 c 0
 988 328 1028 50 1168 50 c 0
 1376 50 1614 320 1614 942 c 0
2678 -1000 m 1
 2678 -1024 l 1
 1328 -1024 l 1
 1328 -1000 l 1
 2678 -1000 l 1
2678 1884 m 1
 2678 1860 l 1
 2392 1860 l 1
 2392 -1024 l 1
 1614 -1024 l 1
 1614 1884 l 1
 2678 1884 l 1
EndSplineSet
EndChar

StartChar: r
Encoding: 114 114 55
GlifName: r
Width: 2202
VWidth: 4730
Flags: HMW
LayerCount: 2
Fore
SplineSet
2098 1590 m 1
 2044 1778 1842 1900 1654 1900 c 0
 1138 1900 1110 1348 1110 914 c 1
 1090 914 l 1
 1090 1414 1126 1926 1662 1926 c 0
 1932 1926 2204 1712 2204 1388 c 0
 2204 1146 2040 934 1762 934 c 0
 1504 934 1314 1110 1314 1364 c 0
 1314 1770 1852 1942 2098 1590 c 1
46 24 m 1
 1396 24 l 1
 1396 0 l 1
 46 0 l 1
 46 24 l 1
332 1860 m 1
 46 1860 l 1
 46 1884 l 1
 1110 1884 l 1
 1110 0 l 1
 332 0 l 1
 332 1860 l 1
EndSplineSet
EndChar

StartChar: s
Encoding: 115 115 56
GlifName: s
Width: 1888
VWidth: 4730
Flags: HMWO
LayerCount: 2
Fore
SplineSet
1556 1486 m 1
 1498 1576 1386 1700 1324 1754 c 1
 1634 1926 l 1
 1654 1926 l 1
 1654 1352 l 1
 1630 1352 l 1
 1605.97873907 1396.40773188 1585.93759444 1439.2186534 1556 1486 c 1
1650 1352 m 1
 1630 1352 l 1
 1466 1606 1262 1896 872 1896 c 0
 660 1896 536 1794 536 1668 c 0
 536 1282 1806 1434 1806 622 c 0
 1806 134 1380 -40 1024 -40 c 0
 598 -40 332 214 148 656 c 1
 168 656 l 1
 364 222 626 -16 1016 -16 c 0
 1286 -16 1426 98 1426 234 c 0
 1426 606 176 446 176 1290 c 0
 176 1676 482 1922 872 1922 c 0
 1274 1922 1486 1622 1650 1352 c 1
164 -40 m 1
 144 -40 l 1
 144 656 l 1
 168 656 l 5
 191.21207886 594.666666669 208.618892346 533.333333332 238 472 c 5
 304 358 422 222 480 168 c 1
 164 -40 l 1
EndSplineSet
EndChar

StartChar: t
Encoding: 116 116 57
GlifName: t
Width: 1638
VWidth: 4730
Flags: HMW
LayerCount: 2
Fore
SplineSet
4 1884 m 1
 1520 1884 l 1
 1520 1860 l 1
 4 1860 l 1
 4 1884 l 1
1642 418 m 1
 1544 156 1294 -28 880 -28 c 0
 422 -28 304 148 304 496 c 2
 304 2294 l 1
 550 2294 878 2314 1082 2416 c 1
 1082 398 l 2
 1082 194 1126 90 1236 90 c 0
 1350 90 1528 188 1622 426 c 1
 1642 418 l 1
EndSplineSet
EndChar

StartChar: u
Encoding: 117 117 58
GlifName: u
Width: 2686
VWidth: 4730
Flags: HMW
LayerCount: 2
Fore
SplineSet
1110 1884 m 1
 1110 558 l 2
 1110 214 1144 172 1258 172 c 0
 1462 172 1582 584 1582 970 c 1
 1602 970 l 1
 1602 552 1500 -40 914 -40 c 0
 476 -40 332 222 332 578 c 2
 332 1860 l 1
 46 1860 l 1
 46 1884 l 1
 1110 1884 l 1
2360 24 m 1
 2646 24 l 1
 2646 0 l 1
 1582 0 l 1
 1582 1860 l 1
 1336 1860 l 1
 1336 1884 l 1
 2360 1884 l 1
 2360 24 l 1
EndSplineSet
EndChar

StartChar: v
Encoding: 118 118 59
GlifName: v
Width: 2452
VWidth: 4730
Flags: HMW
LayerCount: 2
Fore
SplineSet
2474 1860 m 1
 1680 1860 l 1
 1680 1884 l 1
 2474 1884 l 1
 2474 1860 l 1
1376 1860 m 1
 -20 1860 l 1
 -20 1884 l 1
 1376 1884 l 1
 1376 1860 l 1
1556 562 m 1
 2080 1884 l 1
 2118 1884 l 1
 1348 -40 l 1
 1036 -40 l 1
 246 1884 l 1
 1106 1884 l 1
 1556 562 l 1
EndSplineSet
EndChar

StartChar: w
Encoding: 119 119 60
GlifName: w
Width: 3624
VWidth: 4730
Flags: HMW
LayerCount: 2
Fore
SplineSet
1458 1860 m 1
 -20 1860 l 1
 -20 1884 l 1
 1458 1884 l 1
 1458 1860 l 1
3646 1860 m 1
 2768 1860 l 1
 2768 1884 l 1
 3646 1884 l 1
 3646 1860 l 1
1414 606 m 1
 1926 1926 l 1
 2478 1926 l 1
 2830 712 l 1
 3220 1884 l 1
 3248 1884 l 1
 2606 -40 l 1
 2290 -40 l 1
 1744 1384 l 1
 1188 -40 l 1
 872 -40 l 1
 246 1884 l 1
 1082 1884 l 1
 1414 606 l 1
EndSplineSet
EndChar

StartChar: x
Encoding: 120 120 61
GlifName: x
Width: 2432
VWidth: 4730
Flags: HMW
LayerCount: 2
Fore
SplineSet
1016 24 m 1
 2412 24 l 1
 2412 0 l 1
 1016 0 l 1
 1016 24 l 1
20 24 m 1
 794 24 l 1
 794 0 l 1
 20 0 l 1
 20 24 l 1
1396 1860 m 1
 20 1860 l 1
 20 1884 l 1
 1396 1884 l 1
 1396 1860 l 1
2372 1860 m 1
 1658 1860 l 1
 1658 1884 l 1
 2372 1884 l 1
 2372 1860 l 1
2228 0 m 1
 1328 0 l 1
 246 1884 l 1
 1106 1884 l 1
 2228 0 l 1
340 0 m 1
 304 0 l 1
 2012 1884 l 1
 2048 1884 l 1
 340 0 l 1
EndSplineSet
EndChar

StartChar: y
Encoding: 121 121 62
GlifName: y
Width: 2612
VWidth: 4730
Flags: HMW
LayerCount: 2
Fore
SplineSet
1662 1860 m 1
 -62 1860 l 1
 -62 1884 l 1
 1662 1884 l 1
 1662 1860 l 1
2674 1860 m 1
 1876 1860 l 1
 1876 1884 l 1
 2674 1884 l 1
 2674 1860 l 1
1790 750 m 1
 1340 -118 l 1
 242 1884 l 1
 1184 1884 l 1
 1790 750 l 1
1028 -720 m 1
 2342 1884 l 1
 2380 1884 l 1
 1032 -766 l 2
 958 -910 818 -1028 622 -1028 c 0
 396 -1028 212 -876 212 -638 c 0
 212 -420 390 -222 644 -222 c 0
 874 -222 1078 -442 1028 -720 c 1
EndSplineSet
EndChar

StartChar: z
Encoding: 122 122 63
GlifName: z
Width: 2052
VWidth: 4730
Flags: HMW
LayerCount: 2
Fore
SplineSet
868 1860 m 2
 564 1860 286 1594 164 1180 c 1
 140 1180 l 1
 140 1884 l 1
 1946 1884 l 1
 1946 1860 l 1
 876 24 l 1
 1188 24 l 2
 1586 24 1864 246 1986 754 c 1
 2012 754 l 1
 2012 0 l 1
 24 0 l 1
 24 24 l 1
 1090 1860 l 1
 868 1860 l 2
EndSplineSet
EndChar

StartChar: comma
Encoding: 44 44 65
GlifName: comma
Width: 1372
Flags: HMW
LayerCount: 2
Fore
SplineSet
164 446 m 0
 164 704 406 934 684 934 c 0
 966 934 1216 684 1216 262 c 0
 1216 -270 770 -638 156 -638 c 1
 156 -614 l 1
 754 -614 1290 -242 1168 458 c 1
 1144 212 938 -40 648 -40 c 0
 358 -40 164 188 164 446 c 0
EndSplineSet
EndChar

StartChar: exclam
Encoding: 33 33 67
GlifName: exclam
Width: 1802
Flags: HMW
LayerCount: 2
Fore
SplineSet
1384 2536 m 0
 1338 2060 910 1672 910 1262 c 1
 884 1262 l 1
 884 1672 456 2060 410 2536 c 0
 406 2564 410 2590 410 2614 c 0
 410 2884 582 3104 898 3104 c 0
 1214 3104 1388 2884 1388 2614 c 0
 1388 2590 1388 2564 1384 2536 c 0
EndSplineSet
Refer: 1 46 N 1 0 0 1 246 0 2
EndChar

StartChar: quotesingle
Encoding: 39 39 70
GlifName: quotesingle
Width: 1310
Flags: HMW
LayerCount: 2
Fore
SplineSet
1102 2626 m 24
 1056 2318 668 2162 668 1712 c 1
 644 1712 l 1
 644 2162 254 2318 208 2626 c 24
 204 2654 204 2676 204 2700 c 0
 204 2942 414 3112 656 3112 c 0
 898 3112 1106 2942 1106 2700 c 0
 1106 2676 1106 2654 1102 2626 c 24
EndSplineSet
EndChar

StartChar: question
Encoding: 63 63 75
GlifName: question
Width: 2538
Flags: HMW
LayerCount: 2
Fore
SplineSet
1040 1504 m 1
 1356 1630 1430 1914 1430 2294 c 0
 1430 2680 1406 3060 1082 3060 c 0
 706 3060 362 2754 316 2520 c 1
 344 2590 488 2704 680 2704 c 0
 922 2704 1122 2560 1122 2314 c 0
 1122 2048 950 1880 684 1880 c 0
 398 1880 246 2068 246 2338 c 0
 246 2714 632 3112 1254 3112 c 0
 1914 3112 2334 2786 2334 2294 c 0
 2334 1822 1846 1522 1064 1486 c 1
 1064 1142 l 1
 1040 1142 l 1
 1040 1504 l 1
EndSplineSet
Refer: 1 46 N 1 0 0 1 528 0 2
EndChar

StartChar: parenleft
Encoding: 40 40 76
GlifName: parenleft
Width: 1564
Flags: HMW
LayerCount: 2
Fore
SplineSet
1500 -680 m 1
 1486 -696 l 1
 818 -410 266 378 266 1332 c 0
 266 2286 818 2990 1486 3276 c 1
 1500 3260 l 1
 1196 3056 1146 2118 1146 1332 c 0
 1146 546 1196 -476 1500 -680 c 1
EndSplineSet
EndChar

StartChar: at
Encoding: 64 64 79
GlifName: at
Width: 4136
VWidth: 4730
Flags: HMW
LayerCount: 2
Fore
SplineSet
2236 1500 m 0
 2236 836 1990 286 1458 286 c 0
 1086 286 836 516 836 942 c 0
 836 1556 1262 2166 1774 2166 c 0
 2180 2166 2236 1836 2236 1500 c 0
2208 1418 m 0
 2208 1590 2208 1896 2118 1896 c 0
 1982 1896 1740 1492 1740 984 c 0
 1740 710 1802 562 1900 562 c 0
 2026 562 2208 960 2208 1418 c 0
2130 860 m 2
 2424 2130 l 1
 3284 2130 l 1
 2978 812 l 2
 2932 612 2872 390 3056 390 c 0
 3436 390 3888 904 3888 1642 c 0
 3888 2380 3416 3212 2392 3212 c 0
 1216 3212 250 2134 250 864 c 0
 250 -406 982 -852 1716 -852 c 0
 2384 -852 2846 -648 3194 -246 c 1
 3216 -262 l 1
 2872 -664 2384 -876 1716 -876 c 0
 966 -876 226 -422 226 864 c 0
 226 2146 1196 3236 2396 3236 c 0
 3432 3236 3912 2392 3912 1642 c 0
 3912 946 3532 278 2708 278 c 0
 2098 278 2072 606 2130 860 c 2
EndSplineSet
EndChar

StartChar: dollar
Encoding: 36 36 80
GlifName: dollar
Width: 2600
Flags: HMW
LayerCount: 2
Fore
SplineSet
1328 3400 m 1
 1356 3400 l 1
 1356 -328 l 1
 1328 -328 l 1
 1328 3400 l 1
1044 3400 m 1
 1074 3400 l 1
 1074 -328 l 1
 1044 -328 l 1
 1044 3400 l 1
2208 2638 m 1
 2094 2912 1680 3076 1324 3076 c 0
 1054 3076 778 2948 778 2674 c 0
 778 1974 2438 2170 2438 942 c 0
 2438 368 1990 -62 1290 -62 c 0
 488 -62 102 328 102 676 c 0
 102 946 270 1134 532 1134 c 0
 736 1134 918 962 918 700 c 0
 918 454 680 352 500 352 c 0
 336 352 210 434 152 574 c 1
 218 280 594 -28 1250 -28 c 0
 1684 -28 1864 164 1864 480 c 0
 1864 1262 204 922 204 2232 c 0
 204 2764 762 3112 1258 3112 c 0
 1742 3112 2274 2892 2274 2478 c 0
 2274 2208 2126 2060 1864 2060 c 0
 1660 2060 1478 2184 1478 2434 c 0
 1478 2668 1672 2802 1852 2802 c 0
 1996 2802 2122 2756 2208 2638 c 1
EndSplineSet
EndChar

StartChar: numbersign
Encoding: 35 35 81
GlifName: numbersign
Width: 2580
Flags: HMW
LayerCount: 2
Fore
SplineSet
122 1036 m 1
 2334 1036 l 1
 2334 1012 l 1
 122 1012 l 1
 122 1036 l 1
246 2122 m 1
 2458 2122 l 1
 2458 2098 l 1
 246 2098 l 1
 246 2122 l 1
1852 3088 m 1
 1876 3092 l 1
 1466 -20 l 1
 1442 -24 l 1
 1852 3088 l 1
1074 3092 m 1
 1098 3092 l 1
 688 -20 l 1
 664 -20 l 1
 1074 3092 l 1
EndSplineSet
EndChar

StartChar: slash
Encoding: 47 47 82
GlifName: slash
Width: 2128
Flags: HMW
LayerCount: 2
Fore
SplineSet
1942 3194 m 1
 1966 3194 l 1
 188 -614 l 1
 164 -614 l 1
 1942 3194 l 1
EndSplineSet
EndChar

StartChar: percent
Encoding: 37 37 83
GlifName: percent
Width: 4258
Flags: HMW
LayerCount: 2
Fore
SplineSet
2970 860 m 0
 2970 172 3036 -16 3134 -16 c 0
 3232 -16 3298 172 3298 860 c 0
 3298 1548 3232 1736 3134 1736 c 0
 3036 1736 2970 1548 2970 860 c 0
2150 860 m 0
 2150 1446 2672 1762 3134 1762 c 0
 3596 1762 4116 1446 4116 860 c 0
 4116 274 3514 -40 3134 -40 c 0
 2672 -40 2150 274 2150 860 c 0
3186 3072 m 1
 3216 3072 l 1
 1074 0 l 1
 1044 0 l 1
 3186 3072 l 1
962 2212 m 0
 962 1524 1028 1336 1126 1336 c 0
 1224 1336 1290 1524 1290 2212 c 0
 1290 2900 1224 3088 1126 3088 c 0
 1028 3088 962 2900 962 2212 c 0
144 2212 m 0
 144 2798 664 3112 1126 3112 c 0
 1588 3112 2110 2798 2110 2212 c 0
 2110 1626 1506 1310 1126 1310 c 0
 664 1310 144 1626 144 2212 c 0
EndSplineSet
EndChar

StartChar: hyphen
Encoding: 45 45 85
GlifName: hyphen
Width: 1474
Flags: HMW
LayerCount: 2
Fore
SplineSet
246 1138 m 1
 1228 1138 l 1
 1228 1114 l 1
 246 1114 l 1
 246 1138 l 1
EndSplineSet
EndChar

StartChar: plus
Encoding: 43 43 87
GlifName: plus
Width: 2170
Flags: HMW
LayerCount: 2
Fore
SplineSet
1074 450 m 1
 1074 2130 l 1
 1098 2130 l 1
 1098 450 l 1
 1074 450 l 1
246 1306 m 1
 1926 1306 l 1
 1926 1282 l 1
 246 1282 l 1
 246 1306 l 1
EndSplineSet
EndChar

StartChar: less
Encoding: 60 60 89
GlifName: less
Width: 2292
Flags: HMW
LayerCount: 2
Fore
SplineSet
246 1576 m 1
 246 1602 l 1
 2048 2458 l 1
 2048 2434 l 1
 246 1576 l 1
246 1572 m 1
 246 1598 l 1
 2048 742 l 1
 2048 716 l 1
 246 1572 l 1
EndSplineSet
EndChar

StartChar: backslash
Encoding: 92 92 91
GlifName: backslash
Width: 2128
Flags: HMW
LayerCount: 2
Fore
SplineSet
192 3194 m 1
 1966 -614 l 1
 1938 -614 l 1
 164 3194 l 1
 192 3194 l 1
EndSplineSet
EndChar

StartChar: bracketleft
Encoding: 91 91 92
GlifName: bracketleft
Width: 1576
Flags: HMW
LayerCount: 2
Fore
SplineSet
1454 -614 m 1
 226 -614 l 1
 226 -590 l 1
 1454 -590 l 1
 1454 -614 l 1
1454 3170 m 1
 226 3170 l 1
 226 3194 l 1
 1454 3194 l 1
 1454 3170 l 1
1086 3194 m 1
 1086 -614 l 1
 226 -614 l 1
 226 3194 l 1
 1086 3194 l 1
EndSplineSet
EndChar

StartChar: braceleft
Encoding: 123 123 93
GlifName: braceleft
Width: 1604
VWidth: 4730
Flags: HMW
LayerCount: 2
Fore
SplineSet
1482 3194 m 1
 1482 3170 l 1
 1228 3170 1098 2908 1098 2650 c 0
 1098 2420 1236 2216 1236 1888 c 0
 1236 1548 1020 1368 226 1286 c 1
 226 1306 l 1
 348 1346 472 1454 472 1622 c 0
 472 1880 226 2064 226 2544 c 0
 226 2990 520 3194 1482 3194 c 1
1482 -614 m 1
 520 -614 226 -406 226 40 c 0
 226 520 472 704 472 962 c 0
 472 1130 348 1238 226 1278 c 1
 226 1298 l 1
 1020 1216 1236 1036 1236 696 c 0
 1236 368 1098 164 1098 -66 c 0
 1098 -324 1228 -590 1482 -590 c 1
 1482 -614 l 1
EndSplineSet
EndChar

StartChar: bar
Encoding: 124 124 96
GlifName: bar
Width: 942
VWidth: 4730
Flags: HMW
LayerCount: 2
Fore
SplineSet
458 3194 m 1
 484 3194 l 1
 484 -1024 l 1
 458 -1024 l 1
 458 3194 l 1
EndSplineSet
EndChar

StartChar: cent
Encoding: 162 162 98
GlifName: cent
Width: 2214
VWidth: 4730
Flags: HMW
LayerCount: 2
Fore
SplineSet
1254 2274 m 1
 1254 -348 l 1
 1232 -348 l 1
 1232 2274 l 1
 1254 2274 l 1
EndSplineSet
Refer: 40 99 N 1 0 0 1 0 0 2
EndChar

StartChar: sterling
Encoding: 163 163 99
GlifName: sterling
Width: 2812
VWidth: 4730
Flags: HMW
LayerCount: 2
Fore
SplineSet
2712 1134 m 1
 2712 130 2462 -122 1892 -122 c 0
 1330 -122 1024 122 766 122 c 0
 598 122 364 40 324 -82 c 1
 308 -82 l 1
 348 222 856 888 1318 888 c 0
 1646 888 1842 750 2072 750 c 0
 2396 750 2686 798 2686 1134 c 1
 2712 1134 l 1
1904 1630 m 1
 1904 1606 l 1
 62 1606 l 1
 62 1630 l 1
 1904 1630 l 1
320 2252 m 0
 320 2826 790 3112 1572 3112 c 0
 2236 3112 2670 2674 2670 2338 c 0
 2670 2048 2486 1818 2220 1818 c 0
 1954 1818 1704 2008 1704 2294 c 0
 1704 2560 1942 2764 2184 2764 c 0
 2406 2764 2510 2638 2560 2568 c 1
 2424 2830 2096 3052 1736 3052 c 0
 1454 3052 1266 2884 1266 2498 c 0
 1266 2092 1496 1988 1496 1598 c 0
 1496 820 266 840 320 -82 c 1
 294 -82 l 1
 216 488 652 808 652 1070 c 0
 652 1536 320 1780 320 2252 c 0
EndSplineSet
EndChar

StartChar: section
Encoding: 167 167 101
GlifName: section
Width: 2072
VWidth: 4730
Flags: HMW
LayerCount: 2
Fore
SplineSet
676 2700 m 0
 676 2266 1876 2224 1876 1598 c 0
 1876 1262 1634 1192 1454 1086 c 1
 1430 1086 l 1
 1520 1152 1610 1166 1610 1310 c 0
 1610 1682 294 1662 294 2408 c 0
 294 2834 642 3112 1114 3112 c 0
 1434 3112 1908 3010 1908 2576 c 0
 1908 2368 1766 2200 1540 2200 c 0
 1336 2200 1196 2364 1196 2552 c 0
 1196 2724 1352 2888 1552 2888 c 0
 1696 2888 1790 2822 1840 2752 c 1
 1730 3006 1392 3088 1114 3088 c 0
 902 3088 676 2900 676 2700 c 0
1900 664 m 0
 1900 238 1552 -40 1000 -40 c 0
 640 -40 122 102 122 496 c 0
 122 704 266 872 492 872 c 0
 696 872 836 708 836 520 c 0
 836 348 688 200 488 200 c 0
 312 200 216 294 188 364 c 1
 266 110 648 -16 1000 -16 c 0
 1340 -16 1520 212 1520 372 c 0
 1520 806 238 788 238 1414 c 0
 238 1750 480 1902 660 2008 c 1
 684 2008 l 1
 602 1958 512 1892 512 1782 c 0
 512 1410 1900 1410 1900 664 c 0
EndSplineSet
EndChar

StartChar: asciitilde
Encoding: 126 126 104
GlifName: asciitilde
Width: 2818
VWidth: 4730
Flags: HMW
LayerCount: 2
Fore
SplineSet
798 1668 m 0
 580 1668 434 1576 434 1404 c 1
 410 1404 l 1
 410 1876 614 2212 1020 2212 c 0
 1470 2212 1552 1826 1978 1826 c 0
 2236 1826 2384 1916 2384 2088 c 1
 2408 2088 l 1
 2408 1616 2204 1282 1798 1282 c 0
 1278 1282 1252 1668 798 1668 c 0
EndSplineSet
EndChar

StartChar: copyright
Encoding: 169 169 105
GlifName: copyright
Width: 3562
Flags: HMW
LayerCount: 2
Fore
SplineSet
204 1536 m 0
 204 2408 910 3112 1782 3112 c 0
 2654 3112 3358 2408 3358 1536 c 0
 3358 664 2654 -40 1782 -40 c 0
 910 -40 204 664 204 1536 c 0
230 1536 m 0
 230 680 926 -16 1782 -16 c 0
 2638 -16 3334 680 3334 1536 c 0
 3334 2392 2638 3088 1782 3088 c 0
 926 3088 230 2392 230 1536 c 0
EndSplineSet
Refer: 14 67 N 0.6 0 0 0.6 786 614 2
EndChar

StartChar: registered
Encoding: 174 174 106
GlifName: registered
Width: 3562
Flags: HMW
LayerCount: 2
Fore
SplineSet
204 1536 m 0
 204 2408 910 3112 1782 3112 c 0
 2654 3112 3358 2408 3358 1536 c 0
 3358 664 2654 -40 1782 -40 c 0
 910 -40 204 664 204 1536 c 0
230 1536 m 0
 230 680 926 -16 1782 -16 c 0
 2638 -16 3334 680 3334 1536 c 0
 3334 2392 2638 3088 1782 3088 c 0
 926 3088 230 2392 230 1536 c 0
EndSplineSet
Refer: 29 82 N 0.6 0 0 0.6 852 606 2
EndChar

StartChar: logicalnot
Encoding: 172 172 107
GlifName: logicalnot
Width: 1990
Flags: HMW
LayerCount: 2
Fore
SplineSet
1720 2494 m 1
 246 2494 l 1
 246 2520 l 1
 1744 2520 l 1
 1744 1692 l 1
 1720 1692 l 1
 1720 2494 l 1
EndSplineSet
EndChar

StartChar: guillemotleft
Encoding: 171 171 108
GlifName: guillemotleft
Width: 3092
Flags: HMW
LayerCount: 2
Fore
SplineSet
2256 1590 m 1
 2860 606 l 1
 2846 594 l 1
 1250 1568 l 1
 1250 1606 l 1
 2846 2580 l 1
 2860 2568 l 1
 2256 1590 l 1
1028 1590 m 1
 1712 606 l 1
 1700 594 l 1
 102 1568 l 1
 102 1606 l 1
 1700 2580 l 1
 1712 2568 l 1
 1028 1590 l 1
EndSplineSet
EndChar

StartChar: mu
Encoding: 181 181 111
GlifName: mu
Width: 2460
VWidth: 4730
Flags: HMW
LayerCount: 2
Fore
SplineSet
1028 -504 m 0
 1164 -504 1270 -622 1270 -778 c 0
 1270 -938 1184 -1064 884 -1064 c 0
 598 -1064 352 -864 352 -496 c 2
 352 1314 l 1
 372 1314 l 1
 372 -496 l 2
 372 -852 610 -1068 954 -1036 c 1
 954 -1036 l 1
 852 -990 782 -894 782 -754 c 0
 782 -618 892 -504 1028 -504 c 0
EndSplineSet
Refer: 58 117 N 1 0 0 1 0 0 2
EndChar

StartChar: asciicircum
Encoding: 94 94 113
GlifName: asciicircum
Width: 2232
Flags: HMW
LayerCount: 2
Fore
SplineSet
1114 2962 m 1
 426 2568 l 1
 410 2580 l 1
 984 3154 l 1
 1250 3154 l 1
 1822 2580 l 1
 1806 2568 l 1
 1114 2962 l 1
EndSplineSet
EndChar

StartChar: degree
Encoding: 176 176 115
GlifName: degree
Width: 1310
Flags: HMW
LayerCount: 2
Fore
SplineSet
164 2786 m 0
 164 3056 386 3276 656 3276 c 0
 926 3276 1146 3056 1146 2786 c 0
 1146 2516 926 2294 656 2294 c 0
 386 2294 164 2516 164 2786 c 0
278 2786 m 0
 278 2568 438 2408 656 2408 c 0
 874 2408 1032 2568 1032 2786 c 0
 1032 3004 874 3162 656 3162 c 0
 438 3162 278 3004 278 2786 c 0
EndSplineSet
EndChar

StartChar: onequarter
Encoding: 188 188 119
GlifName: onequarter
Width: 2870
Flags: HMW
LayerCount: 2
Fore
SplineSet
2130 2662 m 1
 2154 2662 l 1
 188 -410 l 1
 164 -410 l 1
 2130 2662 l 1
EndSplineSet
Refer: 6 52 N 0.6 0 0 0.6 1106 -422 2
Refer: 3 49 N 0.6 0 0 0.6 -32 1458 2
EndChar

StartChar: onehalf
Encoding: 189 189 120
GlifName: onehalf
Width: 2990
Flags: HMW
LayerCount: 2
Fore
SplineSet
2130 2662 m 1
 2154 2662 l 1
 188 -410 l 1
 164 -410 l 1
 2130 2662 l 1
EndSplineSet
Refer: 4 50 N 0.6 0 0 0.6 1396 -414 2
Refer: 3 49 N 0.6 0 0 0.6 -32 1458 2
EndChar

StartChar: threequarters
Encoding: 190 190 121
GlifName: threequarters
Width: 3116
Flags: HMW
LayerCount: 2
Fore
SplineSet
2376 2662 m 1
 2400 2662 l 1
 434 -410 l 1
 410 -410 l 1
 2376 2662 l 1
EndSplineSet
Refer: 5 51 N 0.6 0 0 0.6 20 1450 2
Refer: 6 52 N 0.6 0 0 0.6 1352 -422 2
EndChar

StartChar: grave
Encoding: 96 96 123
GlifName: grave
Width: 1740
Flags: HMW
LayerCount: 2
Fore
SplineSet
614 2786 m 2
 414 2746 226 2892 226 3092 c 0
 226 3292 452 3482 656 3392 c 2
 1508 3002 l 1
 1496 2978 l 1
 614 2786 l 2
EndSplineSet
EndChar

StartChar: acute
Encoding: 180 180 124
GlifName: acute
Width: 1740
Flags: HMW
LayerCount: 2
Fore
SplineSet
1126 2786 m 2
 246 2978 l 1
 234 3002 l 1
 1086 3392 l 2
 1290 3482 1516 3292 1516 3092 c 0
 1516 2892 1326 2746 1126 2786 c 2
EndSplineSet
EndChar

StartChar: cedilla
Encoding: 184 184 128
GlifName: cedilla
Width: 2252
Flags: HMW
LayerCount: 2
Fore
SplineSet
1184 -574 m 0
 1184 -356 1032 -324 888 -324 c 1
 1258 168 l 1
 1294 168 l 1
 1048 -160 l 1
 1532 -172 1802 -262 1802 -492 c 0
 1802 -696 1606 -902 864 -902 c 1
 864 -876 l 1
 1106 -876 1184 -746 1184 -574 c 0
EndSplineSet
EndChar

StartChar: ring
Encoding: 730 730 271
GlifName: ring
Width: 1310
VWidth: 0
Flags: HMW
LayerCount: 2
Fore
SplineSet
204 2786 m 0
 204 2994 366 3154 656 3154 c 0
 946 3154 1106 2994 1106 2786 c 0
 1106 2578 946 2416 656 2416 c 0
 366 2416 204 2578 204 2786 c 0
552 2786 m 0
 552 2540 586 2442 656 2442 c 0
 726 2442 758 2540 758 2786 c 0
 758 3032 726 3130 656 3130 c 0
 586 3130 552 3032 552 2786 c 0
EndSplineSet
EndChar

StartChar: tilde
Encoding: 732 732 272
GlifName: tilde
Width: 1834
VWidth: 0
Flags: HMW
LayerCount: 2
Fore
SplineSet
462 2618 m 0
 302 2618 230 2506 230 2416 c 1
 204 2416 l 1
 204 2764 286 3100 610 3100 c 0
 978 3100 1060 2778 1372 2778 c 0
 1532 2778 1606 2888 1606 2978 c 1
 1630 2978 l 1
 1630 2588 1630 2294 1266 2294 c 0
 910 2294 802 2618 462 2618 c 0
EndSplineSet
EndChar

StartChar: AE
Encoding: 198 198 274
GlifName: A_E_
Width: 4464
Flags: HMW
LayerCount: 2
Fore
SplineSet
2150 3072 m 1
 2180 3072 l 1
 446 0 l 1
 414 0 l 1
 2150 3072 l 1
62 24 m 1
 962 24 l 1
 962 0 l 1
 62 0 l 1
 62 24 l 1
1004 1016 m 1
 2192 1016 l 1
 2192 992 l 1
 1004 992 l 1
 1004 1016 l 1
2150 3072 m 1
 3032 3072 l 1
 3032 0 l 1
 2150 0 l 1
 2150 3072 l 1
2150 3072 m 1
 4300 3072 l 1
 4300 2232 l 1
 4276 2232 l 1
 4154 2670 3756 3048 3318 3048 c 2
 2150 3048 l 1
 2150 3072 l 1
4342 0 m 1
 1782 0 l 1
 1782 24 l 1
 3276 24 l 2
 3796 24 4196 402 4318 922 c 1
 4342 922 l 1
 4342 0 l 1
3702 1016 m 1
 3580 1290 3306 1576 3072 1576 c 2
 2826 1576 l 1
 2826 1602 l 1
 3072 1602 l 2
 3306 1602 3580 1868 3702 2142 c 1
 3728 2142 l 1
 3728 1016 l 1
 3702 1016 l 1
EndSplineSet
EndChar

StartChar: ae
Encoding: 230 230 277
GlifName: ae
Width: 3698
VWidth: 4730
Flags: HMW
LayerCount: 2
Fore
SplineSet
286 1458 m 0
 286 1732 644 1916 1098 1916 c 0
 1630 1916 2032 1664 2032 1250 c 1
 2052 742 l 1
 2052 234 1480 -40 984 -40 c 0
 414 -40 144 158 144 462 c 0
 144 806 458 1070 1040 1070 c 2
 1958 1070 l 1
 1958 1044 l 1
 1328 1044 l 2
 1140 1044 970 798 970 462 c 0
 970 188 1048 -4 1150 -4 c 0
 1260 -4 1376 204 1376 536 c 2
 1376 1250 l 2
 1376 1524 1290 1888 962 1888 c 0
 810 1888 582 1818 492 1724 c 1
 812 1888 1150 1720 1150 1466 c 0
 1150 1262 930 1110 704 1110 c 0
 458 1110 286 1270 286 1458 c 0
2810 1078 m 1
 2806 1472 2802 1900 2642 1900 c 0
 2482 1900 2438 1490 2438 1024 c 0
 2438 558 2474 12 2806 12 c 0
 3192 12 3470 246 3572 586 c 1
 3596 586 l 1
 3490 230 3190 -40 2654 -40 c 0
 2158 -40 1762 286 1762 942 c 0
 1762 1598 2146 1926 2642 1926 c 0
 3252 1926 3592 1498 3592 1052 c 1
 2142 1052 l 1
 2142 1078 l 1
 2810 1078 l 1
EndSplineSet
EndChar

StartChar: uni2010
Encoding: 8208 8208 279
GlifName: uni2010
Width: 1474
Flags: HMW
LayerCount: 2
Fore
SplineSet
246 1138 m 1
 1228 1138 l 1
 1228 1114 l 1
 246 1114 l 1
 246 1138 l 1
EndSplineSet
EndChar

StartChar: uni2011
Encoding: 8209 8209 280
GlifName: uni2011
Width: 1174
Flags: HMW
LayerCount: 2
Fore
SplineSet
246 1138 m 1
 930 1138 l 1
 930 1114 l 1
 246 1114 l 1
 246 1138 l 1
EndSplineSet
EndChar

StartChar: figuredash
Encoding: 8210 8210 282
GlifName: figuredash
Width: 1822
Flags: HMW
LayerCount: 2
Fore
SplineSet
246 1138 m 1
 1576 1138 l 1
 1576 1114 l 1
 246 1114 l 1
 246 1138 l 1
EndSplineSet
EndChar

StartChar: perthousand
Encoding: 8240 8240 285
GlifName: perthousand
Width: 6348
Flags: HMW
LayerCount: 2
Fore
SplineSet
5058 860 m 0
 5058 172 5124 -16 5222 -16 c 0
 5320 -16 5386 172 5386 860 c 0
 5386 1548 5320 1736 5222 1736 c 0
 5124 1736 5058 1548 5058 860 c 0
4240 860 m 0
 4240 1446 4760 1762 5222 1762 c 0
 5684 1762 6206 1446 6206 860 c 0
 6206 274 5602 -40 5222 -40 c 0
 4760 -40 4240 274 4240 860 c 0
2970 860 m 0
 2970 172 3036 -16 3134 -16 c 0
 3232 -16 3298 172 3298 860 c 0
 3298 1548 3232 1736 3134 1736 c 0
 3036 1736 2970 1548 2970 860 c 0
2150 860 m 0
 2150 1446 2672 1762 3134 1762 c 0
 3596 1762 4116 1446 4116 860 c 0
 4116 274 3514 -40 3134 -40 c 0
 2672 -40 2150 274 2150 860 c 0
3186 3072 m 1
 3216 3072 l 1
 1074 0 l 1
 1044 0 l 1
 3186 3072 l 1
962 2212 m 0
 962 1524 1028 1336 1126 1336 c 0
 1224 1336 1290 1524 1290 2212 c 0
 1290 2900 1224 3088 1126 3088 c 0
 1028 3088 962 2900 962 2212 c 0
144 2212 m 0
 144 2798 664 3112 1126 3112 c 0
 1588 3112 2110 2798 2110 2212 c 0
 2110 1626 1506 1310 1126 1310 c 0
 664 1310 144 1626 144 2212 c 0
EndSplineSet
EndChar

StartChar: uni2031
Encoding: 8241 8241 286
GlifName: uni2031
Width: 8436
Flags: HMW
LayerCount: 2
Fore
SplineSet
7148 860 m 0
 7148 172 7214 -16 7312 -16 c 0
 7410 -16 7476 172 7476 860 c 0
 7476 1548 7410 1736 7312 1736 c 0
 7214 1736 7148 1548 7148 860 c 0
6328 860 m 0
 6328 1446 6850 1762 7312 1762 c 0
 7774 1762 8294 1446 8294 860 c 0
 8294 274 7692 -40 7312 -40 c 0
 6850 -40 6328 274 6328 860 c 0
5058 860 m 0
 5058 172 5124 -16 5222 -16 c 0
 5320 -16 5386 172 5386 860 c 0
 5386 1548 5320 1736 5222 1736 c 0
 5124 1736 5058 1548 5058 860 c 0
4240 860 m 0
 4240 1446 4760 1762 5222 1762 c 0
 5684 1762 6206 1446 6206 860 c 0
 6206 274 5602 -40 5222 -40 c 0
 4760 -40 4240 274 4240 860 c 0
2970 860 m 0
 2970 172 3036 -16 3134 -16 c 0
 3232 -16 3298 172 3298 860 c 0
 3298 1548 3232 1736 3134 1736 c 0
 3036 1736 2970 1548 2970 860 c 0
2150 860 m 0
 2150 1446 2672 1762 3134 1762 c 0
 3596 1762 4116 1446 4116 860 c 0
 4116 274 3514 -40 3134 -40 c 0
 2672 -40 2150 274 2150 860 c 0
3186 3072 m 1
 3216 3072 l 1
 1074 0 l 1
 1044 0 l 1
 3186 3072 l 1
962 2212 m 0
 962 1524 1028 1336 1126 1336 c 0
 1224 1336 1290 1524 1290 2212 c 0
 1290 2900 1224 3088 1126 3088 c 0
 1028 3088 962 2900 962 2212 c 0
144 2212 m 0
 144 2798 664 3112 1126 3112 c 0
 1588 3112 2110 2798 2110 2212 c 0
 2110 1626 1506 1310 1126 1310 c 0
 664 1310 144 1626 144 2212 c 0
EndSplineSet
EndChar

StartChar: uniFB00
Encoding: 64256 64256 290
GlifName: uniF_B_00
Width: 3152
VWidth: 4730
Flags: HMW
LayerCount: 2
Fore
SplineSet
40 24 m 1
 3032 24 l 1
 3032 0 l 1
 40 0 l 1
 40 24 l 1
40 1884 m 1
 3112 1884 l 1
 3112 1860 l 1
 40 1860 l 1
 40 1884 l 1
2204 2556 m 1
 2150 2724 1886 2880 1668 2880 c 0
 1340 2880 1146 2528 1146 2008 c 2
 1146 0 l 1
 410 0 l 1
 410 1892 l 2
 410 2510 930 2908 1626 2908 c 0
 1998 2908 2294 2654 2294 2380 c 0
 2294 2130 2142 1962 1896 1962 c 0
 1670 1962 1462 2102 1462 2348 c 0
 1462 2594 1622 2752 1844 2752 c 0
 2040 2752 2204 2556 2204 2556 c 1
3526 2752 m 1
 3480 2904 3292 3084 3018 3084 c 0
 2690 3084 2540 2732 2540 2212 c 2
 2540 0 l 1
 1802 0 l 1
 1802 2098 l 2
 1802 2716 2322 3112 2978 3112 c 0
 3350 3112 3604 2858 3604 2584 c 0
 3604 2334 3454 2166 3208 2166 c 0
 2982 2166 2772 2306 2772 2552 c 0
 2772 2798 2960 2958 3182 2958 c 0
 3342 2958 3490 2850 3526 2752 c 1
EndSplineSet
Ligature2: "'liga' Standard Ligatures lookup 0-1" f f
LCarets2: 1 0
EndChar

StartChar: uniFB01
Encoding: 64257 64257 291
GlifName: uniF_B_01
Width: 2866
VWidth: 4730
Flags: HMW
LayerCount: 2
Fore
SplineSet
410 2098 m 2
 410 2758 928 3112 1748 3112 c 0
 2202 3112 2498 2858 2498 2584 c 0
 2498 2334 2348 2166 2102 2166 c 0
 1876 2166 1668 2306 1668 2552 c 0
 1668 2798 1850 2950 2072 2950 c 0
 2232 2950 2366 2872 2420 2724 c 1
 2350 2950 2080 3088 1748 3088 c 0
 1298 3088 1146 2732 1146 2212 c 2
 1146 0 l 1
 410 0 l 1
 410 2098 l 2
40 24 m 1
 2786 24 l 1
 2786 0 l 1
 40 0 l 1
 40 24 l 1
1720 1860 m 1
 40 1860 l 1
 40 1884 l 1
 2498 1884 l 1
 2498 0 l 1
 1720 0 l 1
 1720 1860 l 1
EndSplineSet
Ligature2: "'liga' Standard Ligatures lookup 0-1" f i
LCarets2: 1 0
EndChar

StartChar: uniFB02
Encoding: 64258 64258 292
GlifName: uniF_B_02
Width: 3194
VWidth: 4730
Flags: HMW
LayerCount: 2
Fore
SplineSet
40 24 m 1
 3134 24 l 1
 3134 0 l 1
 40 0 l 1
 40 24 l 1
40 1884 m 1
 1720 1884 l 1
 1720 1860 l 1
 40 1860 l 1
 40 1884 l 1
1986 2990 m 1
 2764 3154 l 1
 2764 0 l 1
 1986 0 l 1
 1986 2990 l 1
2146 2728 m 1
 2106 2892 1904 3084 1626 3084 c 0
 1298 3084 1146 2732 1146 2212 c 2
 1146 0 l 1
 410 0 l 1
 410 2098 l 2
 410 2716 930 3112 1586 3112 c 0
 1958 3112 2212 2858 2212 2584 c 0
 2212 2334 2060 2166 1814 2166 c 0
 1588 2166 1380 2306 1380 2552 c 0
 1380 2798 1540 2958 1762 2958 c 0
 2024 2958 2146 2728 2146 2728 c 1
EndSplineSet
Ligature2: "'liga' Standard Ligatures lookup 0-1" f l
LCarets2: 1 0
EndChar

StartChar: uniFB03
Encoding: 64259 64259 293
GlifName: uniF_B_03
Width: 4176
VWidth: 4730
Flags: HMW
LayerCount: 2
Fore
SplineSet
1720 2098 m 2
 1720 2758 2240 3112 3060 3112 c 0
 3514 3112 3810 2858 3810 2584 c 0
 3810 2334 3658 2166 3412 2166 c 0
 3186 2166 2978 2306 2978 2552 c 0
 2978 2798 3154 2950 3376 2950 c 0
 3580 2950 3696 2850 3732 2724 c 1
 3658 2946 3396 3084 3060 3084 c 0
 2610 3084 2458 2732 2458 2212 c 2
 2458 0 l 1
 1720 0 l 1
 1720 2098 l 2
40 24 m 1
 4096 24 l 1
 4096 0 l 1
 40 0 l 1
 40 24 l 1
410 1892 m 2
 410 2506 930 2908 1626 2908 c 0
 1998 2908 2294 2654 2294 2380 c 0
 2294 2130 2142 1962 1896 1962 c 0
 1670 1962 1462 2102 1462 2348 c 0
 1462 2594 1622 2752 1844 2752 c 0
 2040 2752 2166 2622 2166 2622 c 1
 2080 2762 1894 2876 1668 2876 c 0
 1340 2876 1146 2528 1146 2008 c 2
 1146 0 l 1
 410 0 l 1
 410 1892 l 2
3032 1860 m 1
 40 1860 l 1
 40 1884 l 1
 3810 1884 l 1
 3810 0 l 1
 3032 0 l 1
 3032 1860 l 1
EndSplineSet
Ligature2: "'liga' Standard Ligatures lookup 0-1" f f i
LCarets2: 2 0 0
EndChar

StartChar: uniFB04
Encoding: 64260 64260 294
GlifName: uniF_B_04
Width: 4586
VWidth: 4730
Flags: HMW
LayerCount: 2
Fore
SplineSet
40 24 m 1
 4526 24 l 1
 4526 0 l 1
 40 0 l 1
 40 24 l 1
40 1884 m 1
 3112 1884 l 1
 3112 1860 l 1
 40 1860 l 1
 40 1884 l 1
3380 2990 m 1
 4158 3154 l 1
 4158 0 l 1
 3380 0 l 1
 3380 2990 l 1
2170 2622 m 1
 2084 2762 1886 2880 1668 2880 c 0
 1340 2880 1146 2528 1146 2008 c 2
 1146 0 l 1
 410 0 l 1
 410 1892 l 2
 410 2506 930 2908 1626 2908 c 0
 1998 2908 2294 2654 2294 2380 c 0
 2294 2130 2142 1962 1896 1962 c 0
 1670 1962 1462 2102 1462 2348 c 0
 1462 2594 1622 2752 1844 2752 c 0
 2008 2752 2170 2622 2170 2622 c 1
3526 2756 m 1
 3464 2960 3218 3088 3018 3088 c 0
 2690 3088 2540 2732 2540 2212 c 2
 2540 0 l 1
 1802 0 l 1
 1802 2098 l 2
 1802 2716 2322 3112 2978 3112 c 0
 3350 3112 3604 2858 3604 2584 c 0
 3604 2334 3454 2166 3208 2166 c 0
 2982 2166 2772 2306 2772 2552 c 0
 2772 2798 2932 2958 3154 2958 c 0
 3416 2958 3526 2756 3526 2756 c 1
EndSplineSet
Ligature2: "'liga' Standard Ligatures lookup 0-1" f f l
LCarets2: 2 0 0
EndChar

StartChar: ogonek
Encoding: 731 731 295
GlifName: ogonek
Width: 2252
Flags: HMW
LayerCount: 2
Fore
SplineSet
1692 -544 m 1
 1630 -658 1552 -844 1138 -844 c 0
 806 -844 574 -738 574 -492 c 0
 574 -164 1058 74 1430 176 c 1
 1438 160 l 1
 1392 132 1282 -50 1282 -340 c 0
 1282 -614 1376 -724 1474 -724 c 0
 1560 -724 1618 -646 1676 -536 c 1
 1692 -544 l 1
EndSplineSet
EndChar

StartChar: dotlessi
Encoding: 305 305 296
GlifName: dotlessi
Width: 1514
VWidth: 4730
Flags: HMW
LayerCount: 2
Fore
SplineSet
82 24 m 1
 1434 24 l 1
 1434 0 l 1
 82 0 l 1
 82 24 l 1
368 1860 m 1
 82 1860 l 1
 82 1884 l 1
 1146 1884 l 1
 1146 0 l 1
 368 0 l 1
 368 1860 l 1
EndSplineSet
EndChar

StartChar: uni0237
Encoding: 567 567 297
GlifName: uni0237
Width: 1502
VWidth: 4730
Flags: HMW
LayerCount: 2
Fore
SplineSet
1208 1884 m 1
 1208 -50 l 2
 1208 -586 688 -1064 74 -1064 c 0
 -340 -1064 -676 -848 -676 -536 c 0
 -676 -286 -476 -118 -238 -118 c 0
 -12 -118 196 -258 196 -504 c 0
 196 -734 36 -898 -250 -898 c 0
 -454 -898 -570 -778 -590 -652 c 1
 -566 -844 -312 -1028 -4 -1028 c 0
 488 -1028 414 -430 414 90 c 2
 430 1860 l 1
 62 1860 l 1
 62 1884 l 1
 1208 1884 l 1
EndSplineSet
EndChar

StartChar: kgreenlandic
Encoding: 312 312 306
GlifName: kgreenlandic
Width: 2908
VWidth: 4730
Flags: HMW
LayerCount: 2
Fore
SplineSet
2674 0 m 1
 1720 0 l 1
 1012 1110 l 1
 2208 1884 l 1
 2244 1884 l 1
 1618 1474 l 1
 2674 0 l 1
1490 24 m 1
 2830 24 l 1
 2830 0 l 1
 1490 0 l 1
 1490 24 l 1
2568 1860 m 1
 1654 1860 l 1
 1654 1884 l 1
 2568 1884 l 1
 2568 1860 l 1
62 24 m 1
 1372 24 l 1
 1372 0 l 1
 62 0 l 1
 62 24 l 1
430 1860 m 1
 62 1860 l 1
 62 1884 l 1
 1208 1884 l 1
 1208 0 l 1
 430 0 l 1
 430 1860 l 1
EndSplineSet
EndChar

StartChar: breve
Encoding: 728 728 307
GlifName: breve
Width: 1310
VWidth: 4730
Flags: HMW
LayerCount: 2
Fore
SplineSet
148 3108 m 1
 148 2928 434 2888 656 2888 c 0
 878 2888 1164 2928 1164 3108 c 1
 1188 3108 l 1
 1188 2572 984 2334 656 2334 c 0
 328 2334 122 2572 122 3108 c 1
 148 3108 l 1
EndSplineSet
EndChar

StartChar: thorn
Encoding: 254 254 318
GlifName: thorn
Width: 2756
VWidth: 4730
Flags: HMW
LayerCount: 2
Fore
SplineSet
1106 942 m 0
 1106 1564 1332 1922 1766 1922 c 0
 2212 1922 2634 1556 2634 942 c 0
 2634 328 2212 -40 1766 -40 c 0
 1336 -40 1106 320 1106 942 c 0
1126 942 m 0
 1126 320 1388 40 1568 40 c 0
 1716 40 1754 328 1754 942 c 0
 1754 1556 1720 1840 1572 1840 c 0
 1384 1840 1126 1564 1126 942 c 0
62 -1000 m 1
 1414 -1000 l 1
 1414 -1024 l 1
 62 -1024 l 1
 62 -1000 l 1
348 3048 m 1
 62 3048 l 1
 62 3072 l 1
 1126 3072 l 1
 1126 -1024 l 1
 348 -1024 l 1
 348 3048 l 1
EndSplineSet
EndChar

StartChar: Thorn
Encoding: 222 222 319
GlifName: T_horn
Width: 3010
Flags: HMW
LayerCount: 2
Fore
SplineSet
430 3072 m 1
 1310 3072 l 1
 1310 0 l 1
 430 0 l 1
 430 3072 l 1
62 24 m 1
 1680 24 l 1
 1680 0 l 1
 62 0 l 1
 62 24 l 1
62 3072 m 1
 1680 3072 l 1
 1680 3048 l 1
 62 3048 l 1
 62 3072 l 1
1762 738 m 2
 1228 738 l 1
 1228 762 l 1
 1474 762 l 2
 1868 762 1926 1234 1926 1598 c 0
 1926 1962 1868 2434 1474 2434 c 2
 1228 2434 l 1
 1228 2458 l 1
 1762 2458 l 2
 2504 2458 2868 2130 2868 1598 c 0
 2868 1066 2504 738 1762 738 c 2
EndSplineSet
EndChar

StartChar: Lslash
Encoding: 321 321 324
GlifName: L_slash
Width: 2702
Flags: HMW
LayerCount: 2
Fore
SplineSet
62 1474 m 1
 1884 2376 l 1
 1884 2348 l 1
 62 1446 l 1
 62 1474 l 1
EndSplineSet
Refer: 23 76 N 1 0 0 1 0 0 2
EndChar

StartChar: lslash
Encoding: 322 322 325
GlifName: lslash
Width: 1600
VWidth: 4730
Flags: HMW
LayerCount: 2
Fore
SplineSet
46 1474 m 1
 1622 2376 l 1
 1622 2348 l 1
 46 1446 l 1
 46 1474 l 1
EndSplineSet
Refer: 49 108 N 1 0 0 1 0 0 2
EndChar

StartChar: eth
Encoding: 240 240 329
GlifName: eth
Width: 2702
VWidth: 4730
Flags: HMW
LayerCount: 2
Fore
SplineSet
614 2580 m 1
 2540 2580 l 1
 2540 2556 l 1
 614 2556 l 1
 614 2580 l 1
2498 1270 m 0
 2498 410 1994 -40 1294 -40 c 0
 594 -40 122 410 122 1024 c 0
 122 1720 646 2028 1142 2028 c 0
 1498 2028 1576 1666 1576 1146 c 1
 1556 1146 l 1
 1556 1760 1418 1954 1282 1954 c 0
 1122 1954 1064 1778 1064 1024 c 0
 1064 352 1082 -16 1282 -16 c 0
 1482 -16 1556 392 1556 1146 c 1
 1564 1388 l 1
 1564 2092 1184 3100 430 3100 c 1
 430 3112 l 1
 1626 3112 2498 2340 2498 1270 c 0
EndSplineSet
EndChar

StartChar: OE
Encoding: 338 338 330
GlifName: O_E_
Width: 4238
Flags: HMW
LayerCount: 2
Fore
SplineSet
1680 3048 m 1025,0,0
1126 1536 m 0,0,0
 1126 668 1294 24 1680 24 c 1,0,0
 1556 0 l 1,0,0
 724 0 164 622 164 1536 c 0,0,0
 164 2450 724 3072 1556 3072 c 1,0,0
 1680 3048 l 1,0,0
 1294 3048 1126 2404 1126 1536 c 0,0,0
EndSplineSet
Refer: 16 69 N 1 0 0 1 1496 0 2
EndChar

StartChar: germandbls
Encoding: 223 223 332
GlifName: germandbls
Width: 3526
VWidth: 4730
Flags: HMW
LayerCount: 2
Fore
SplineSet
1896 1650 m 1
 1896 1672 l 1
 2260 1672 2334 2076 2334 2338 c 0
 2334 2632 2242 3088 1856 3088 c 0
 1390 3088 1290 2552 1290 1970 c 2
 1290 0 l 1
 430 0 l 1
 430 2012 l 2
 430 2802 1228 3112 1896 3112 c 0
 2482 3112 3240 2884 3240 2380 c 0
 3240 1888 2720 1650 1896 1650 c 1
62 24 m 1
 1658 24 l 1
 1658 0 l 1
 62 0 l 1
 62 24 l 1
3362 778 m 0
 3362 204 2794 -40 2216 -40 c 0
 1762 -40 1446 262 1446 720 c 0
 1446 1010 1678 1150 1904 1150 c 0
 2108 1150 2330 1028 2330 758 c 0
 2330 504 2092 368 1892 368 c 0
 1720 368 1522 480 1486 648 c 1
 1502 258 1814 -4 2114 -4 c 0
 2396 -4 2458 394 2458 656 c 0
 2458 1042 2424 1646 1896 1646 c 1
 1896 1668 l 1
 2884 1668 3362 1310 3362 778 c 0
EndSplineSet
EndChar

StartChar: circumflex
Encoding: 710 710 335
GlifName: circumflex
Width: 1904
Flags: HMW
LayerCount: 2
Fore
SplineSet
950 2764 m 1
 218 2486 l 1
 204 2498 l 1
 738 3154 l 1
 1168 3154 l 1
 1700 2498 l 1
 1688 2486 l 1
 950 2764 l 1
EndSplineSet
EndChar

StartChar: caron
Encoding: 711 711 336
GlifName: caron
Width: 1904
Flags: HMW
LayerCount: 2
Fore
SplineSet
954 2928 m 1
 1688 3208 l 1
 1700 3194 l 1
 1168 2540 l 1
 738 2540 l 1
 204 3194 l 1
 218 3208 l 1
 954 2928 l 1
EndSplineSet
EndChar

StartChar: pi
Encoding: 960 960 337
GlifName: pi
Width: 2788
VWidth: 4730
Flags: HMW
LayerCount: 2
Fore
SplineSet
2646 422 m 1
 2552 136 2378 -40 1998 -40 c 0
 1642 -40 1418 98 1418 380 c 2
 1418 1720 l 1
 2196 1720 l 1
 2196 308 l 2
 2196 226 2228 140 2360 140 c 0
 2454 140 2552 222 2630 434 c 1
 2646 422 l 1
590 -40 m 0
 340 -40 144 94 144 320 c 0
 144 804 970 540 970 1142 c 2
 970 1844 l 1
 1200 1844 l 1
 1200 996 l 2
 1200 348 992 -40 590 -40 c 0
2564 1884 m 1
 2564 1106 l 1
 192 1106 l 1
 192 798 l 1
 168 798 l 1
 168 1884 l 1
 2564 1884 l 1
EndSplineSet
EndChar

StartChar: uni1E9E
Encoding: 7838 7838 338
GlifName: uni1E_9E_
Width: 4018
VWidth: 4730
Flags: HMW
LayerCount: 2
Fore
SplineSet
62 24 m 1
 1700 24 l 1
 1700 0 l 1
 62 0 l 1
 62 24 l 1
2876 1586 m 1
 2650 1622 2246 1696 2020 1700 c 1
 3052 2990 l 1
 2938 3030 2690 3084 2428 3084 c 0
 1552 3084 1332 2594 1332 1766 c 2
 1332 0 l 1
 430 0 l 1
 430 1806 l 2
 430 2720 1310 3112 2428 3112 c 0
 3054 3112 3568 2842 3732 2666 c 1
 2876 1586 l 1
1630 618 m 1
 1704 282 2048 12 2462 12 c 0
 2848 12 2950 352 2950 860 c 0
 2950 1286 2712 1676 2020 1676 c 1
 2020 1700 l 1
 3334 1700 3854 1412 3854 880 c 0
 3854 306 3286 -40 2626 -40 c 0
 1922 -40 1576 386 1576 762 c 0
 1576 1052 1782 1254 2048 1254 c 0
 2294 1254 2474 1072 2474 802 c 0
 2474 548 2258 368 2016 368 c 0
 1824 368 1684 504 1630 618 c 1
EndSplineSet
EndChar

StartChar: uni203D
Encoding: 8253 8253 339
GlifName: uni203D_
Width: 2948
Flags: HMW
LayerCount: 2
Fore
SplineSet
1826 2270 m 0
 1780 1876 1434 1424 1434 1138 c 1
 1410 1138 l 1
 1410 1424 1144 1876 1098 2270 c 0
 1094 2298 1094 2324 1094 2348 c 0
 1094 2462 1188 2654 1462 2654 c 0
 1736 2654 1830 2462 1830 2348 c 0
 1830 2324 1830 2298 1826 2270 c 0
246 2338 m 0
 246 2714 672 3112 1458 3112 c 0
 2076 3112 2744 2826 2744 2252 c 0
 2744 1678 2000 1372 1422 1372 c 1
 1422 1392 l 1
 1738 1380 2044 1848 2044 2294 c 0
 2044 2680 1810 3060 1364 3060 c 0
 750 3060 378 2760 316 2482 c 1
 344 2584 492 2704 684 2704 c 0
 926 2704 1040 2458 1040 2314 c 0
 1040 2028 828 1880 644 1880 c 0
 440 1880 246 2048 246 2338 c 0
EndSplineSet
Refer: 1 46 N 1 0 0 1 734 0 2
EndChar

StartChar: R.alt
Encoding: 65536 -1 340
GlifName: R_.alt
Width: 3194
Flags: HMW
LayerCount: 2
Fore
SplineSet
1576 1568 m 2
 798 1568 l 1
 798 1590 l 1
 1372 1590 l 2
 1766 1590 1946 1786 1946 2314 c 0
 1946 2842 1766 3048 1372 3048 c 2
 62 3048 l 1
 62 3072 l 1
 1576 3072 l 2
 2318 3072 2846 2846 2846 2314 c 0
 2846 1782 2358 1568 1576 1568 c 2
62 24 m 1
 1680 24 l 1
 1680 0 l 1
 62 0 l 1
 62 24 l 1
430 3072 m 1
 1310 3072 l 1
 1310 0 l 1
 430 0 l 1
 430 3072 l 1
3154 0 m 1
 3088 0 2688 0 2540 0 c 0
 1340 0 2400 1564 1352 1564 c 2
 798 1564 l 1
 798 1576 l 1
 1926 1576 l 2
 3290 1576 2424 24 3010 24 c 0
 3096 24 3096 24 3154 24 c 1
 3154 0 l 1
EndSplineSet
EndChar

StartChar: J.alt
Encoding: 65537 -1 341
GlifName: J_.alt
Width: 2972
Flags: HMW
LayerCount: 2
Fore
SplineSet
1090 3072 m 1
 2912 3072 l 1
 2912 3048 l 1
 1090 3048 l 1
 1090 3072 l 1
1622 3072 m 1
 2502 3072 l 1
 2502 696 l 1
 2256 204 1892 -122 1110 -122 c 0
 508 -122 62 308 62 758 c 0
 62 1134 336 1352 622 1352 c 0
 888 1352 1098 1154 1098 864 c 0
 1098 598 894 376 594 376 c 0
 332 376 184 508 114 630 c 1
 192 220 614 -86 1028 -86 c 0
 1400 -86 1622 204 1622 778 c 2
 1622 3072 l 1
EndSplineSet
EndChar

StartChar: four.alt
Encoding: 65538 -1 342
GlifName: four.alt
Width: 2928
VWidth: 4730
Flags: HMW
LayerCount: 2
Fore
SplineSet
2662 24 m 1
 2662 0 l 1
 1086 0 l 1
 1086 24 l 1
 2662 24 l 1
2356 2040 m 1
 2356 -4 l 1
 1474 -4 l 1
 1474 1754 l 1
 1720 1754 2192 1918 2356 2040 c 1
106 812 m 1
 2724 812 l 1
 2724 786 l 1
 62 786 l 1
 636 1606 1228 2458 1310 3072 c 1
 2286 3072 l 1
 2208 2274 684 1606 106 812 c 1
EndSplineSet
EndChar

StartChar: fj.lig
Encoding: 65539 -1 343
GlifName: fj.lig
Width: 2772
VWidth: 4730
Flags: HMW
LayerCount: 2
Fore
SplineSet
40 24 m 1
 1516 24 l 1
 1516 0 l 1
 40 0 l 1
 40 24 l 1
2498 -50 m 2
 2498 -586 1978 -1064 1364 -1064 c 0
 950 -1064 614 -874 614 -558 c 0
 614 -308 806 -118 1052 -118 c 0
 1278 -118 1486 -258 1486 -504 c 0
 1486 -750 1294 -898 1056 -898 c 0
 872 -898 758 -794 704 -672 c 1
 736 -876 994 -1032 1302 -1032 c 0
 1794 -1032 1720 -438 1720 82 c 2
 1720 1860 l 1
 40 1860 l 1
 40 1884 l 1
 2498 1884 l 1
 2498 -50 l 2
2380 2818 m 1
 2278 2958 2080 3084 1748 3084 c 0
 1298 3084 1146 2732 1146 2212 c 2
 1146 0 l 1
 410 0 l 1
 410 2098 l 2
 410 2758 928 3112 1748 3112 c 0
 2202 3112 2498 2858 2498 2584 c 0
 2498 2334 2348 2166 2102 2166 c 0
 1876 2166 1668 2306 1668 2552 c 0
 1668 2798 1850 2950 2072 2950 c 0
 2208 2950 2322 2884 2380 2818 c 1
EndSplineSet
LCarets2: 1 0
Ligature2: "'liga' Standard Ligatures lookup 0-1" f j
EndChar

StartChar: uni2116
Encoding: 8470 8470 344
Width: 4938
Flags: HW
LayerCount: 2
Fore
SplineSet
3788 2334 m 0
 3788 1868 3850 1582 4010 1582 c 0
 4170 1582 4232 1868 4232 2334 c 0
 4232 2800 4170 3088 4010 3088 c 0
 3850 3088 3788 2800 3788 2334 c 0
3194 2334 m 0
 3194 2866 3556 3112 4010 3112 c 0
 4464 3112 4826 2866 4826 2334 c 0
 4826 1802 4464 1556 4010 1556 c 0
 3556 1556 3194 1802 3194 2334 c 0
EndSplineSet
Refer: 85 45 N 1 0 0 1 3272 164 2
Refer: 25 78 N 1 0 0 1 0 0 2
EndChar

StartChar: Euro
Encoding: 8364 8364 345
Width: 3030
Flags: HW
LayerCount: 2
Fore
SplineSet
2756 2716 m 1
 2654 2884 2362 3072 2002 3072 c 0
 1514 3072 1392 2412 1392 1536 c 0
 1392 578 1540 28 1946 28 c 0
 2336 28 2670 350 2772 730 c 1
 2798 730 l 1
 2692 332 2352 -40 1774 -40 c 0
 950 -40 390 594 390 1536 c 0
 390 2396 934 3112 1880 3112 c 0
 2502 3112 2888 2778 2888 2442 c 0
 2888 2152 2696 1982 2450 1982 c 0
 2224 1982 2012 2130 2012 2416 c 0
 2012 2682 2208 2846 2450 2846 c 0
 2586 2846 2710 2774 2756 2716 c 1
EndSplineSet
Refer: 88 61 N 1 0 0 1 -122 -286 2
EndChar
